<svg xmlns="http://www.w3.org/2000/svg">
<defs>
<font id="Havenothingtodowith" horiz-adv-x="1014" >
  <font-face 
    font-family="Have nothing to do with"
    font-weight="400"
    font-stretch="normal"
    units-per-em="2048"
    panose-1="2 0 5 0 0 0 0 0 0 0"
    ascent="1638"
    descent="-410"
    x-height="1456"
    cap-height="1465"
    bbox="-100 -267 14424 1760"
    underline-thickness="150"
    underline-position="-142"
    unicode-range="U+001D-U+2248"
  />
<missing-glyph horiz-adv-x="643" 
d="M89 1428v-69q0 -32 -3 -45q3 -23 3 -51v-99q0 -48 -30 -48h-15v-30q1 -6 6 -6h30q45 0 45 102v246q0 5 -6 5h-24q-6 0 -6 -5zM158 1428v-12q0 -33 -3 -42q3 -29 3 -54v-84q0 -14 -3 -30q0 -117 30 -117q2 -9 24 -9h15q42 0 48 78v270q0 5 -6 5h-24q-4 0 -9 -8
q3 -53 3 -63l-3 -42l3 -27q-3 -28 -3 -54l3 -6l-3 -6l3 -36q0 -75 -21 -75q-21 4 -21 33v279q0 5 -6 5h-24q-6 0 -6 -5zM305 1431v-99q0 -31 -3 -48q3 -17 3 -48v-75q0 -19 -3 -45q3 -9 3 -36h27q9 0 9 63v57q0 7 -3 12q3 5 3 12v39l3 21h3q37 -204 48 -204h29v195
q0 14 3 30q-3 11 -3 27v93q0 6 -6 6h-23q-6 -1 -6 -6v-15q0 -32 3 -45q-3 -23 -3 -51v-51h-6q-30 154 -42 168h-36zM454 1425v-48q0 -3 3 -3l-3 -6v-105q0 -16 3 -27q-3 -16 -3 -30v-117q0 -4 9 -9h24q6 0 6 6v87q3 42 12 42h6q29 -135 39 -135h24q6 0 6 6q0 13 -45 207
q45 127 45 138h-33q-8 0 -45 -120h-9v66q0 3 -3 3l3 6v36q0 4 -9 9h-24q-6 -1 -6 -6zM35 961v-30q0 -3 3 -3l-3 -6v-141q0 -3 3 -3q-3 -6 -3 -9q9 -78 54 -78h15q40 0 54 75q-3 21 -3 33q0 17 3 21q-3 26 -3 42v42q0 14 3 30q0 113 -48 113h-27q-48 -14 -48 -86zM329 700
l6 -3h24q9 0 15 87q9 6 18 6h3q23 0 23 -60q0 -33 9 -33h24q6 0 6 6q-3 45 -42 344h-38q-12 0 -27 -170q-3 0 -21 -177zM191 1039v-87q0 -56 -3 -90q3 -25 3 -87v-12q0 -24 -3 -57q5 -12 9 -12l30 3v144q0 21 30 21q15 -4 15 -21v-141q1 -6 6 -6l30 3v342q0 5 -6 5h-24
q-6 0 -6 -5v-123q0 -18 -18 -18h-9q-18 0 -18 18v123q0 5 -6 5h-24q-6 0 -6 -5zM481 1044v-98q0 -31 -3 -48q3 -17 3 -48v-75q0 -19 -3 -45q3 -9 3 -36h27q9 0 9 63v57q0 7 -3 12q3 5 3 12v39l3 21h3q37 -204 48 -204h30v195q0 14 3 30q-3 11 -3 27v93q0 5 -6 5h-24

<glyph glyph-name=".notdef" horiz-adv-x="643" 
d="M89 1428v-69q0 -32 -3 -45q3 -23 3 -51v-99q0 -48 -30 -48h-15v-30q1 -6 6 -6h30q45 0 45 102v246q0 5 -6 5h-24q-6 0 -6 -5zM158 1428v-12q0 -33 -3 -42q3 -29 3 -54v-84q0 -14 -3 -30q0 -117 30 -117q2 -9 24 -9h15q42 0 48 78v270q0 5 -6 5h-24q-4 0 -9 -8
q3 -53 3 -63l-3 -42l3 -27q-3 -28 -3 -54l3 -6l-3 -6l3 -36q0 -75 -21 -75q-21 4 -21 33v279q0 5 -6 5h-24q-6 0 -6 -5zM305 1431v-99q0 -31 -3 -48q3 -17 3 -48v-75q0 -19 -3 -45q3 -9 3 -36h27q9 0 9 63v57q0 7 -3 12q3 5 3 12v39l3 21h3q37 -204 48 -204h29v195
q0 14 3 30q-3 11 -3 27v93q0 6 -6 6h-23q-6 -1 -6 -6v-15q0 -32 3 -45q-3 -23 -3 -51v-51h-6q-30 154 -42 168h-36zM454 1425v-48q0 -3 3 -3l-3 -6v-105q0 -16 3 -27q-3 -16 -3 -30v-117q0 -4 9 -9h24q6 0 6 6v87q3 42 12 42h6q29 -135 39 -135h24q6 0 6 6q0 13 -45 207
q45 127 45 138h-33q-8 0 -45 -120h-9v66q0 3 -3 3l3 6v36q0 4 -9 9h-24q-6 -1 -6 -6zM35 961v-30q0 -3 3 -3l-3 -6v-141q0 -3 3 -3q-3 -6 -3 -9q9 -78 54 -78h15q40 0 54 75q-3 21 -3 33q0 17 3 21q-3 26 -3 42v42q0 14 3 30q0 113 -48 113h-27q-48 -14 -48 -86zM329 700
l6 -3h24q9 0 15 87q9 6 18 6h3q23 0 23 -60q0 -33 9 -33h24q6 0 6 6q-3 45 -42 344h-38q-12 0 -27 -170q-3 0 -21 -177zM191 1039v-87q0 -56 -3 -90q3 -25 3 -87v-12q0 -24 -3 -57q5 -12 9 -12l30 3v144q0 21 30 21q15 -4 15 -21v-141q1 -6 6 -6l30 3v342q0 5 -6 5h-24
q-6 0 -6 -5v-123q0 -18 -18 -18h-9q-18 0 -18 18v123q0 5 -6 5h-24q-6 0 -6 -5zM481 1044v-98q0 -31 -3 -48q3 -17 3 -48v-75q0 -19 -3 -45q3 -9 3 -36h27q9 0 9 63v57q0 7 -3 12q3 5 3 12v39l3 21h3q37 -204 48 -204h30v195q0 14 3 30q-3 11 -3 27v93q0 5 -6 5h-24
q-6 0 -6 -5v-6q0 -11 3 -27q-3 -6 -3 -9q0 -7 3 -12q-3 -33 -3 -57v-51h-6q-29 154 -42 167h-36zM95 1012q24 0 24 -63v-174q0 -39 -21 -51q-27 8 -27 51q3 35 3 51v150q0 28 21 36zM395 937l12 -99q-3 -12 -15 -12q-9 2 -12 12q6 99 15 99zM215 658v-155q0 -23 3 -42
q-3 -15 -3 -39v-51q0 -7 3 -12q-3 -5 -3 -12v-27q1 -6 6 -6h90q4 0 9 9v21q0 9 -63 12l-3 6v27q0 9 -3 9l3 15v48q0 18 18 18h42q6 0 6 6v30l-15 3h-3q-10 0 -15 -3q-36 0 -36 24q3 25 3 42v36q0 4 9 9h42l15 3v29q0 6 -6 6h-93q-6 0 -6 -6zM344 664q0 -17 -3 -47l3 -6
l-3 -15q3 -64 3 -75l-3 -21q3 -16 3 -36q0 -19 -3 -30q3 -20 3 -39v-75q1 -6 6 -6h24q6 0 6 6v123q1 18 9 18q11 0 35 -144l6 -3h27q6 0 6 6q0 9 -30 150q24 37 24 69v42q0 83 -59 83h-54zM484 578v-30q0 -3 3 -3l-3 -6v-141q0 -3 3 -3q-3 -6 -3 -9q9 -78 54 -78h15
q40 0 54 75q-3 21 -3 33q0 17 3 21q-3 25 -3 42v42q0 14 3 30q0 113 -48 113h-27q-48 -13 -48 -86zM65 655v-86q0 -56 -3 -90q3 -25 3 -87v-12q0 -24 -3 -57q5 -12 9 -12l30 3v144q0 21 30 21q15 -4 15 -21v-141q1 -6 6 -6l30 3v341q0 6 -6 6h-24q-6 0 -6 -6v-122
q0 -18 -18 -18h-9q-18 0 -18 18v122q0 6 -6 6h-24q-6 0 -6 -6zM395 629q26 -5 26 -54q-3 -6 -3 -12v-9q0 -3 3 -3q0 -51 -29 -51q-12 2 -12 24v84q0 16 15 21zM544 629q24 0 24 -63v-174q0 -39 -21 -51q-27 8 -27 51q3 35 3 51v150q0 28 21 36zM224 234v-33q16 -3 18 -3
q6 3 9 3v3q2 51 15 51q18 0 18 -27v-27q0 -30 -60 -162v-36l15 -3h18q12 0 33 3q5 -3 15 -3q6 3 9 3v24q0 6 -6 6h-45q0 20 45 132q6 13 6 39v33q0 41 -45 47q-38 0 -45 -50zM335 228v-177q7 -54 48 -54q47 0 47 78v30q0 16 -3 27q3 16 3 30v54q0 68 -47 68h-6
q-42 -11 -42 -56zM448 246v-18l21 -12l3 -12q0 -17 -3 -21q3 -39 3 -63v-117h27v278h-15zM529 278l-6 -155l6 -3h21q2 36 15 36h6q10 0 18 -39l-3 -6v-42q-4 -30 -12 -30h-9q-13 0 -15 36h-27v-6q0 -72 48 -72h3q42 8 42 63v66q0 45 -27 60h-30q-6 0 -6 6v33q0 27 27 27h24
q6 0 6 6v6l-3 14h-78zM380 252h6q12 0 15 -42v-138q0 -42 -18 -42t-21 51l3 18v9q0 7 -3 12q3 5 3 12q0 6 -3 6l3 15q0 28 -3 69q0 19 18 30z" />
    <glyph glyph-name=".null" horiz-adv-x="0" 
 />
    <glyph glyph-name=".null" horiz-adv-x="0" 
 />
    <glyph glyph-name="nonmarkingreturn" horiz-adv-x="508" 
 />
    <glyph glyph-name="space" unicode=" " horiz-adv-x="508" 
 />
    <glyph glyph-name="space" unicode="&#xa0;" horiz-adv-x="508" 
 />
    <glyph glyph-name="exclam" unicode="!" horiz-adv-x="712" 
d="M350 1490q75 -12 160 -16q56 -31 56 -112v-28q-20 -113 -20 -128q12 -101 12 -116q-16 -93 -16 -152v-60q0 -33 -12 -96q4 -104 4 -140q-8 -68 -8 -92v-4q0 -4 -4 -4l4 -8v-60q0 -39 -68 -68q-77 -20 -144 -20h-24q-84 0 -84 196q-4 3 -4 36q0 28 8 84q-16 139 -32 380
q-5 0 -12 72q16 106 16 132q0 10 -16 88q0 94 132 108q43 5 52 8zM406 266q64 0 120 -68q20 -44 20 -80q-13 -152 -40 -152q-6 -15 -100 -20q-9 0 -100 16q-35 -4 -44 -4q-64 0 -76 124l4 20q0 4 -4 32q15 124 120 124q26 0 100 8z" />
    <glyph glyph-name="quotedbl" unicode="&#x22;" horiz-adv-x="1070" 
d="M281 1420q184 0 184 -108l-4 -20v-20q0 -27 -4 -48q4 -21 4 -48q0 -82 -72 -168l-56 -104q-48 -52 -112 -52q-76 14 -76 64q0 9 36 100q4 7 4 20v4q0 55 -64 124q-20 44 -20 76v76q0 74 48 88q129 16 132 16zM729 1416q71 -8 84 -8q50 4 56 4q108 -19 108 -80q4 0 4 -24
v-120q0 -57 -56 -180q-5 -1 -76 -104q-60 -68 -116 -68q-72 10 -72 72q12 47 44 108l4 28q0 40 -72 116q-16 34 -16 52q0 139 24 168q23 26 84 36z" />
    <glyph glyph-name="numbersign" unicode="#" horiz-adv-x="1174" 
d="M773 1452h12q72 0 100 -68q8 -18 8 -52v-4q0 -23 -8 -116q0 -119 84 -156q104 -48 104 -108q-12 -96 -92 -96q-96 -40 -96 -108v-16q0 -97 72 -124q108 -31 108 -104v-16q0 -73 -104 -104q-68 -38 -68 -164q-4 -23 -4 -64l4 -64q0 -68 -60 -104h-56q-100 17 -100 60
q-9 5 -16 80l4 24v56q0 4 4 4l-4 8v52q0 75 -72 100h-16q-80 0 -88 -140q0 -240 -40 -240l-24 -4h-76q-68 0 -68 124q-4 54 -12 100q4 56 4 96q0 66 -128 96q-40 30 -40 68v28q0 57 76 80q96 66 96 128v28q0 97 -84 112q-57 0 -76 48q-16 33 -20 64q0 56 44 80
q124 34 124 108q-4 56 -4 72q19 200 44 200q1 23 68 32q120 0 120 -128v-28q0 -50 -4 -124q33 -104 80 -104h20q65 0 76 128q8 32 8 68v24q0 34 -4 72q2 71 40 84q26 12 64 12zM485 732q0 -112 68 -144l24 -4q69 0 88 108v48q-12 84 -96 84h-12q-72 0 -72 -92z" />
    <glyph glyph-name="dollar" unicode="$" horiz-adv-x="1186" 
d="M580 1543q59 0 92 -120q35 -56 112 -80q107 -16 164 -68q68 -61 68 -148q12 -21 12 -56v-24q0 -47 -112 -80q-51 -4 -108 -16q-53 0 -164 116q-42 16 -64 16q-72 -12 -72 -60v-16q0 -46 92 -92q198 -40 272 -80q130 -57 160 -128q4 -95 28 -184q-16 -77 -28 -192
q-11 -23 -80 -80q-43 -60 -104 -60q-130 -44 -164 -64q-17 -19 -24 -140q0 -50 -64 -60h-12q-55 0 -76 136q-27 65 -144 108q-87 9 -116 32q-92 52 -92 92q-28 79 -28 180q0 72 88 92q52 -4 84 -4h84q71 0 100 -64q34 -60 96 -60h4q88 15 88 76q0 68 -120 124q-78 0 -124 28
q-121 37 -172 64q-103 92 -104 104q-24 44 -24 108v32q0 38 4 76q-4 22 -4 36q0 92 64 192q102 60 236 60q92 46 92 156q33 48 60 48z" />
    <glyph glyph-name="percent" unicode="%" horiz-adv-x="1614" 
d="M397 1505q65 -16 184 -20q80 -24 80 -144l20 -172q-4 -77 -4 -136v-24q-8 -58 -8 -64v-12q18 -64 52 -64h20q34 0 88 88q90 88 104 136q47 58 116 172q4 0 88 124q75 80 164 80q56 0 64 -48v-24q-20 -96 -164 -268q-18 -63 -96 -120q-84 -121 -84 -160v-16q0 -32 56 -32
h144q192 -11 192 -48q21 0 68 -160l4 -28q-4 -58 -4 -64l4 -128q-4 -72 -4 -96l8 -64q0 -62 -64 -208q-31 -48 -188 -48q-244 0 -244 76q-44 59 -44 180q0 21 -16 80q16 121 16 152q0 147 -44 172h-24q-41 0 -80 -80q-225 -301 -340 -484q-47 -64 -88 -64h-24
q-104 9 -104 60v12q0 40 72 120q23 55 100 172q98 111 112 144q44 81 44 116q0 38 -132 44v4l-28 -4h-20q-224 0 -224 116q-28 128 -28 176q12 62 12 72q-16 84 -16 104v32q24 292 56 292q46 56 204 56z" />
    <glyph glyph-name="ampersand" unicode="&#x26;" horiz-adv-x="1339" 
d="M571 1466q64 -8 128 -8h52q200 -21 200 -60q47 -28 72 -124q20 -42 20 -72q-8 -80 -8 -104q0 -21 4 -80q-61 -212 -100 -212q-100 -34 -100 -92q0 -37 52 -44q25 1 76 28q15 8 32 8h28q52 0 136 8q80 -9 80 -56q0 -44 -104 -196q-52 -104 -52 -128v-24q1 -37 124 -188
q36 -71 36 -80v-12q0 -68 -152 -68q-101 0 -152 56q-31 12 -44 12h-12q-24 0 -104 -52q-143 -44 -196 -44q-84 -4 -116 -4q-110 24 -116 24q-129 0 -168 52q-22 0 -68 156v4q8 57 8 80q-32 76 -32 212q0 45 48 180q128 138 164 148q68 37 68 76q0 15 -76 148l-20 152
q-7 0 -8 48v12q0 150 108 196q0 18 192 48zM583 1070q23 -92 84 -92q63 0 72 76v20q0 87 -84 100q-72 -17 -72 -104zM471 414q0 -81 100 -120l28 -4q92 0 104 56v8q-3 60 -120 196l-8 4h-24q-66 0 -80 -140z" />
    <glyph glyph-name="quotesingle" unicode="'" horiz-adv-x="555" 
d="M202 1426q71 -8 84 -8q50 4 56 4q108 -19 108 -80q4 0 4 -24v-120q0 -57 -56 -180q-5 -1 -76 -104q-60 -68 -116 -68q-72 10 -72 72q12 47 44 108l4 28q0 40 -72 116q-16 34 -16 52q0 139 24 168q23 26 84 36z" />
    <glyph glyph-name="parenleft" unicode="(" horiz-adv-x="677" 
d="M590 1663q136 -10 136 -55v-6q0 -44 -64 -94q-92 -125 -124 -202q-32 -49 -32 -107q-32 -30 -32 -167q-24 -67 -24 -155q-7 0 -8 -48q0 -33 12 -65q-4 -34 -12 -57q4 -60 4 -100v-58q24 -128 24 -136q-4 -16 -4 -19q40 -264 72 -264q101 -184 132 -229q56 -38 56 -80
q0 -32 -56 -42q-66 6 -80 6q-35 -3 -40 -3q-136 34 -136 84q-20 36 -88 100q-76 171 -116 332q-16 23 -16 41q0 13 4 58q-24 46 -24 174q-8 49 -8 61q8 108 8 113q0 3 -4 10q8 42 8 71q-4 64 -4 87l24 67q-8 38 -8 65q36 120 36 148q0 51 36 119q11 36 84 155q4 33 68 99
q0 49 176 97z" />
    <glyph glyph-name="parenright" unicode=")" horiz-adv-x="676" 
d="M47 1657q177 0 208 -80q68 -69 96 -135q76 -84 76 -157q36 -53 60 -193l4 -45l-4 -23q0 -13 28 -99q0 -11 -8 -55q4 -85 12 -141q-9 -148 -16 -215q-16 -63 -20 -212q-28 -63 -96 -273q-24 -28 -84 -122q-70 -81 -104 -93q-79 -29 -176 -29q-48 0 -60 51q0 34 112 167
q64 69 64 116l52 119q0 31 28 131q0 45 24 164q0 74 4 116q-8 32 -8 64v29q0 5 8 77v16q-12 43 -12 51q0 18 4 61q-21 114 -40 180q-34 193 -60 193q-15 23 -36 90q-56 73 -108 128q-28 44 -28 64q0 55 80 55z" />
    <glyph glyph-name="asterisk" unicode="*" horiz-adv-x="921" 
d="M421 1459q56 -4 83 -4q36 0 36 -88q-7 -57 -7 -80q18 -92 76 -92h4q35 0 127 56q14 4 25 4q64 0 98 -80l4 -20q0 -77 -102 -96q-90 -16 -123 -44q-11 -27 -11 -36q0 -39 62 -72q46 -48 51 -100v-12q-15 -76 -69 -76q-83 0 -131 84q-64 72 -102 72q-43 0 -156 -152
q-33 -16 -40 -16q-98 14 -98 104q0 67 66 112q29 39 29 68q0 48 -102 68q-105 19 -105 116v4q19 72 65 72h22q126 -44 160 -44h22q61 0 61 88q0 33 -14 92q20 72 69 72z" />
    <glyph glyph-name="plus" unicode="+" horiz-adv-x="1008" 
d="M501 1137h14q102 0 102 -92q3 -34 3 -52q-6 -50 -6 -84q0 -58 87 -84q65 4 85 4q132 -8 132 -48q21 -30 21 -80q0 -124 -68 -124q-188 -17 -200 -28q-51 -32 -51 -184q-19 -104 -61 -104q0 -8 -51 -8h-3q-129 5 -129 36q-17 51 -17 88q0 23 10 80q-9 116 -65 116l-183 -8
q-67 17 -67 80q-5 0 -7 72q14 108 91 108q18 4 21 4q47 -4 92 -4h10q88 0 111 88v8q0 14 -3 84q0 120 41 120q0 9 91 12z" />
    <glyph glyph-name="comma" unicode="," horiz-adv-x="561" 
d="M224 338q65 -4 116 -4q17 0 44 4q92 -32 92 -84q-16 -71 -24 -188q-11 -86 -44 -132q-71 -152 -120 -152q-16 -8 -72 -12q-60 16 -60 68v8q0 9 36 104v52q0 34 -64 92q-28 85 -32 124q0 120 128 120z" />
    <glyph glyph-name="hyphen" unicode="-" horiz-adv-x="851" 
d="M613 837q152 -29 152 -56q12 0 16 -56q0 -132 -48 -132q-21 -20 -80 -20q-57 8 -228 12l-76 -8q-22 4 -36 4q-77 -8 -108 -8q-144 0 -164 72v72q0 67 40 96q21 12 156 20q170 -16 192 -16h16q28 0 168 20z" />
    <glyph glyph-name="hyphen" unicode="&#xad;" horiz-adv-x="851" 
d="M613 837q152 -29 152 -56q12 0 16 -56q0 -132 -48 -132q-21 -20 -80 -20q-57 8 -228 12l-76 -8q-22 4 -36 4q-77 -8 -108 -8q-144 0 -164 72v72q0 67 40 96q21 12 156 20q170 -16 192 -16h16q28 0 168 20z" />
    <glyph glyph-name="period" unicode="." horiz-adv-x="572" 
d="M324 368q99 0 128 -53q22 -48 24 -96q0 -117 -44 -159q-111 -26 -232 -26q-61 0 -96 92q-4 24 -4 40v31q0 118 60 158l20 4h72z" />
    <glyph glyph-name="slash" unicode="/" horiz-adv-x="692" 
d="M649 1657q107 -10 107 -76l4 -15q0 -55 -72 -195q-15 -27 -35 -122q-19 -15 -65 -164q-45 -66 -83 -198q0 -47 -115 -347q0 -36 -118 -324q-14 -66 -68 -179q0 -118 -84 -210q-52 -19 -138 -19h-7q-65 15 -65 88q0 40 42 114q37 157 95 313q15 22 65 156q14 11 42 122
q15 29 50 126q14 29 68 198q15 23 61 172q24 42 42 133q26 25 72 187q40 73 69 164q28 76 130 76h3z" />
    <glyph glyph-name="zero" unicode="0" horiz-adv-x="1220" 
d="M646 1501h128q78 0 168 -40q112 -97 112 -184q40 -103 40 -160q-4 -41 -4 -64v-72l-8 -72q0 -71 12 -268h4q-4 -8 -4 -12q0 -52 -4 -80q4 -54 4 -92q-20 -258 -60 -368q0 -34 -148 -92q-92 -28 -116 -28q-68 8 -108 8q-59 0 -112 -4q-44 4 -124 4q-40 0 -180 68
q-28 21 -68 148q-28 159 -40 324q0 10 4 32q0 17 -4 44q4 107 4 192q0 7 8 100q-8 102 -8 120v16q11 240 32 240q51 176 88 176q143 52 192 60l28 -4h36q10 0 128 8zM518 1053q-12 -223 -12 -316q0 -33 8 -92q-4 -44 -4 -80q9 -220 64 -220q15 -8 32 -8h8q92 0 108 164v4
q4 238 4 276q0 4 -4 12q4 14 4 16q-4 128 -4 148q4 74 4 92q-35 112 -124 112q-84 -11 -84 -84v-24z" />
    <glyph glyph-name="one" unicode="1" horiz-adv-x="1220" 
d="M694 1471q112 0 132 -88v-12q0 -63 -16 -152q4 -310 20 -328l-4 -40q0 -30 4 -140q0 -149 -20 -272q0 -79 80 -96q9 -19 128 -24q44 -26 44 -68q0 -232 -32 -232q-30 -32 -120 -32q-28 0 -116 4q-50 -8 -60 -8q-21 0 -84 8l-104 -8q-42 4 -92 4q-20 0 -48 -4
q-200 16 -200 36l-8 24q4 90 4 112q-12 49 -12 68v20q0 88 188 88q72 27 72 108v12q-12 83 -16 92q20 221 20 224q-19 176 -88 176q-160 23 -160 56q-8 0 -8 32q8 76 8 88q0 4 -4 12q0 83 64 104h8q93 -4 96 -4q68 16 104 48q40 64 40 116q43 76 180 76z" />
    <glyph glyph-name="two" unicode="2" horiz-adv-x="1220" 
d="M636 1479q79 0 292 -72q59 -48 100 -132q28 -47 28 -176q4 0 12 -48q0 -275 -48 -344q0 -52 -152 -208q-65 -56 -84 -56q-50 -16 -72 -64l-4 -20v-20q37 -48 104 -48h8q97 8 108 8h8q78 0 116 -100q0 -98 4 -124q-27 -104 -92 -104q-40 0 -168 -4l-68 8q-92 -4 -92 -8
l-20 4q-66 0 -128 -4q-53 4 -88 4q-24 0 -76 -8q-110 0 -148 76q-16 41 -16 72v12q12 75 12 88q-8 43 -8 56v4q0 48 148 168q68 71 116 96q0 9 112 104q0 8 112 116q52 84 52 208q0 136 -92 176h-32q-68 0 -100 -96q0 -132 -20 -132q-39 -28 -112 -40q-34 4 -56 4h-48
q-87 0 -120 84v8q0 13 16 92q-4 40 -4 60q0 60 56 220q33 53 120 92q13 12 132 24q0 13 192 24z" />
    <glyph glyph-name="three" unicode="3" horiz-adv-x="1220" 
d="M632 1475q212 -24 268 -36q40 -14 92 -72q60 -78 60 -128q-4 -27 -4 -44q0 -19 24 -148q0 -54 -48 -224q-28 -67 -28 -100q0 -55 64 -120q24 -62 24 -164q0 -40 -4 -96q8 -47 8 -80q-6 -70 -76 -220q-79 -61 -252 -100h-28q-28 0 -32 4q-27 -4 -44 -4h-52
q-205 16 -308 56q-75 32 -88 72q-57 107 -60 168q-9 0 -20 56v16q9 168 52 168q0 4 12 4h4q64 0 132 4q132 -9 132 -40q14 -5 48 -112q37 -40 92 -40h4q124 13 124 80v52q0 124 -88 164q-38 12 -156 20q-52 35 -52 92q-4 0 -4 16v40q0 62 68 80q149 0 180 44q40 49 40 100
v52q0 98 -76 112q-36 12 -48 12h-12q-56 0 -100 -140q-29 -39 -132 -60q-48 0 -48 -4l-8 4l-28 -4q-104 8 -104 64q0 11 -12 120v20q0 70 48 152q8 1 60 76q40 52 136 52q62 32 204 32q0 4 36 4z" />
    <glyph glyph-name="four" unicode="4" horiz-adv-x="1220" 
d="M744 1439q42 0 128 -4l20 4q54 0 76 -56q11 -37 20 -160q-4 -118 -4 -160l-12 -56v-12q12 -88 12 -108l-4 -8h4q0 -4 -4 -4q8 -115 8 -144l-12 -92q0 -108 104 -172q28 -36 28 -64q0 -142 -48 -184q-76 -50 -76 -132q0 -85 -76 -112h-4q-136 -4 -172 -4q-75 0 -88 92
q-10 132 -56 132q0 15 -112 24h-8q-17 0 -88 -12q-66 8 -104 8h-40l-24 -4q-84 15 -84 76v16q0 63 -8 148q0 90 76 168q31 90 76 148q33 116 148 292q30 45 80 152q22 22 80 152q29 68 104 68q29 8 60 8zM535 609v-22q0 -73 64 -105q73 0 84 194v30q-11 90 -44 90h-20
q-84 -104 -84 -187z" />
    <glyph glyph-name="five" unicode="5" horiz-adv-x="1220" 
d="M469 1451q67 0 132 -12q19 0 124 4q15 0 100 -4q63 8 100 8q124 -20 124 -80q4 -6 4 -24q0 -24 -8 -84l4 -48q0 -65 -76 -88q-15 0 -60 8q-157 -4 -296 -20q-48 -25 -48 -64q0 -41 60 -56l20 -4q73 4 96 4q171 -44 176 -44q86 -46 120 -148q32 -132 44 -248
q-16 -96 -36 -364q-71 -172 -124 -172q-63 -56 -152 -56q-52 -20 -104 -24q-25 6 -188 12q-36 15 -156 28q-85 29 -168 216l-16 68l4 40v16q0 200 32 200q0 15 140 28h20q144 -13 144 -92q28 -144 64 -144l24 -4h20q66 0 120 92q4 47 4 68v80q0 9 4 16q0 67 -92 144
q-30 8 -36 8q-97 -12 -136 -12h-48q-124 0 -196 96q-12 30 -20 84q4 104 24 184v52q8 176 8 192v20q12 100 84 100q91 24 164 24z" />
    <glyph glyph-name="six" unicode="6" horiz-adv-x="1220" 
d="M527 1475q203 -8 304 -28q40 8 80 8h4q49 -11 112 -72q56 -55 56 -252v-12q-21 -80 -72 -80q-6 0 -64 4q-4 0 -68 -8q-79 10 -208 112l-28 4h-4q-74 0 -108 -132v-16q0 -116 168 -116h56v4q82 0 240 -76q56 -40 56 -108q52 -88 52 -176q0 -2 4 -52q-4 -21 -4 -24
q6 -79 12 -88q0 -13 -28 -136q0 -72 -56 -172q-13 -19 -132 -88q-11 -10 -76 -16l-20 4q-111 -24 -144 -24q-54 8 -68 8h-68q-104 0 -224 68q-100 109 -100 196q-16 61 -20 180q-24 81 -24 136q12 122 20 268q-12 155 -12 168q16 98 16 116v68q24 152 48 208q53 74 156 108
q122 16 144 16zM527 559q4 -106 4 -168q0 -65 72 -88q27 -12 44 -12h20q67 0 88 232q0 99 -124 112q-104 -12 -104 -72v-4z" />
    <glyph glyph-name="seven" unicode="7" horiz-adv-x="1220" 
d="M368 1451q34 0 332 -16q95 8 132 8q204 -13 204 -36q36 -35 36 -140q0 -24 -40 -108q0 -31 -60 -184q0 -49 -80 -232q-55 -234 -108 -352q-36 -101 -60 -232q-46 -119 -60 -136q-9 -46 -240 -56l-24 4h-56q-67 0 -76 52q0 36 60 220q0 53 104 280q7 21 20 132
q77 137 84 204q10 18 52 140q4 0 4 16v16q0 59 -84 88q-34 -4 -56 -4h-4q-68 8 -76 8q-208 0 -208 24q-36 32 -36 168v4q0 86 76 108q140 24 164 24z" />
    <glyph glyph-name="eight" unicode="8" horiz-adv-x="1220" 
d="M625 1471q79 -16 92 -16h24q68 8 76 8q175 -45 224 -116q60 -92 60 -244v-28q-29 -272 -52 -272q-28 -50 -28 -76q0 -25 64 -128q28 -67 28 -168q8 0 8 -48q0 -114 -52 -296q-23 -34 -124 -108q-18 -8 -120 -28h-68q-17 0 -44 4q-54 -12 -128 -20q-74 20 -120 20
q-216 0 -280 168q-32 80 -32 204q0 31 4 56q-4 25 -4 60q0 56 48 216q36 43 36 80q0 14 -48 136q-20 61 -20 136q25 320 48 320q88 136 300 136q0 -4 4 -4v4l8 -4q74 8 96 8zM517 1071l12 -72l-4 -64q27 -76 88 -76h32q100 0 100 112q4 56 4 96q0 62 -108 92h-4
q-97 0 -116 -68zM501 419q0 -128 108 -128h12q148 0 148 152v16q0 97 -80 132q-16 8 -44 8h-4q-105 0 -140 -148v-32z" />
    <glyph glyph-name="nine" unicode="9" horiz-adv-x="1220" 
d="M553 1467q78 -12 92 -12h12q15 0 92 12q224 -51 224 -84q51 -29 72 -104q28 -104 28 -136v-200q-16 -154 -16 -216q0 -60 -40 -168q-32 -133 -80 -264q-77 -155 -156 -268q-58 -56 -104 -56h-4q-69 0 -180 -4q-108 31 -108 76t84 136q92 124 92 188l24 80v16q0 50 -88 68
h-88q-77 0 -200 72q-68 101 -68 200q-20 78 -20 160v64l28 164v56q0 68 72 148q62 64 192 64q8 4 12 4l16 -4q70 8 112 8zM489 907q30 -100 108 -100h8q70 0 100 76q0 51 4 112q-17 128 -60 128q0 10 -48 12h-12q-66 0 -92 -100q-8 -57 -8 -128z" />
    <glyph glyph-name="colon" unicode=":" horiz-adv-x="594" 
d="M247 1114q60 -4 64 -8v4q4 0 4 -4l28 4h40q104 -34 104 -136q-16 -144 -44 -144q-53 -24 -148 -24q-132 0 -164 56q-16 29 -16 44q0 164 36 164q50 44 96 44zM247 322h4q200 -10 200 -28q32 -22 32 -60q-12 -57 -12 -68q8 -48 8 -76q0 -76 -200 -76q0 -4 -24 -4
q-120 20 -120 68q0 49 -16 112q0 132 128 132z" />
    <glyph glyph-name="semicolon" unicode=";" horiz-adv-x="600" 
d="M204 1105q89 -4 144 -4h48q88 0 88 -96q0 -143 -44 -168q-48 -40 -164 -40h-36q-94 0 -128 92q4 40 4 60v64q0 63 88 92zM304 321q160 -24 160 -48q11 0 20 -52q-4 -92 -4 -164q0 -31 -72 -152q-37 -103 -112 -148q-33 -15 -56 -20q-76 11 -76 72q0 62 40 120q4 7 4 20
v16q0 39 -72 108q-24 54 -24 88q0 94 24 128q14 24 168 32z" />
    <glyph glyph-name="semicolon" unicode="&#x37e;" horiz-adv-x="600" 
d="M204 1105q89 -4 144 -4h48q88 0 88 -96q0 -143 -44 -168q-48 -40 -164 -40h-36q-94 0 -128 92q4 40 4 60v64q0 63 88 92zM304 321q160 -24 160 -48q11 0 20 -52q-4 -92 -4 -164q0 -31 -72 -152q-37 -103 -112 -148q-33 -15 -56 -20q-76 11 -76 72q0 62 40 120q4 7 4 20
v16q0 39 -72 108q-24 54 -24 88q0 94 24 128q14 24 168 32z" />
    <glyph glyph-name="less" unicode="&#x3c;" horiz-adv-x="1148" 
d="M933 1156q64 0 84 -60q20 -46 20 -76q0 -80 -108 -116q-47 -28 -252 -92q-59 0 -132 -56q-36 0 -44 -36v-12q0 -41 104 -64l232 -80q192 -64 192 -120v-16q0 -31 -4 -56q4 -21 4 -48q0 -44 -64 -52h-28q-126 32 -188 72q0 12 -136 28q-42 13 -136 68q-64 10 -156 68
q-88 0 -248 88q-28 27 -28 164q0 92 136 116q120 60 276 108q30 20 140 56q83 48 248 84q42 32 88 32z" />
    <glyph glyph-name="equal" unicode="=" horiz-adv-x="1164" 
d="M180 1101h8l124 -16q67 4 72 8q34 -4 56 -4h80q88 0 88 8q4 0 4 -4q84 -4 116 -4q85 0 188 12q144 -22 144 -76q-14 -156 -56 -172l-28 -8h-136q-51 0 -128 12q-70 -8 -88 -8q-60 8 -72 8l-80 -12q-78 8 -92 8l-112 -12q-136 0 -168 64q-12 21 -12 40v28q20 112 48 112
q16 16 44 16zM464 605q81 -16 116 -16h40q13 0 20 -4l84 8q97 -8 128 -8l92 12q116 -14 116 -116v-28q0 -94 -120 -112q-70 0 -196 20q-11 0 -88 -16l-40 4q-77 -5 -80 -8q-128 4 -224 20q-79 -16 -92 -16h-8q-80 0 -108 56l-12 116q0 65 120 76q23 0 28 4q2 -4 84 -12
q134 20 140 20z" />
    <glyph glyph-name="greater" unicode="&#x3e;" horiz-adv-x="1126" 
d="M162 1156q13 0 128 -36q45 0 156 -60q103 -35 164 -68q56 -12 200 -64q9 0 124 -40q62 0 132 -120q16 -65 16 -92q0 -69 -140 -120q-33 -32 -220 -80q-44 -27 -140 -44q-61 -52 -172 -80q-174 -80 -216 -80q-112 0 -112 96q-4 50 -4 52q0 47 76 108l116 32q40 23 164 56
q21 23 128 48q52 28 52 60q0 43 -236 104q-32 15 -116 32q-43 33 -144 68q-40 30 -40 88v16q0 76 60 120z" />
    <glyph glyph-name="question" unicode="?" horiz-adv-x="1055" 
d="M563 1454q75 0 208 -40q93 -36 152 -140q36 -122 36 -148q-12 -94 -12 -120v-28q0 -9 -4 -16q4 -7 4 -16v-24q0 -19 4 -40q0 -45 -80 -160q-180 -127 -180 -184q-14 -28 -36 -112q-41 -44 -160 -44q0 -4 -8 -4q-94 0 -124 76l-4 28q0 190 40 228q0 36 184 184
q36 54 36 116v4q-22 104 -104 104q-94 0 -116 -128q-28 -40 -64 -40q-204 12 -204 24q-40 25 -40 92v8l32 204q0 76 176 156q25 8 52 12q41 -4 64 -4h44q47 0 104 12zM595 254q104 -30 104 -96v-28q0 -25 4 -60q-19 -120 -60 -120l-40 -4h-20q-40 0 -88 12q-44 -4 -80 -4
q-40 0 -84 68l-4 20q0 6 4 56q-4 42 -4 48q0 75 76 100q22 4 36 4q38 0 156 4z" />
    <glyph glyph-name="at" unicode="@" horiz-adv-x="1663" 
d="M698 1485q303 0 516 -36q153 -31 212 -104q38 -65 68 -104q24 -77 24 -120q-8 -73 -8 -96q24 -108 24 -232h4l-4 -40v-116q-8 -229 -28 -276l-36 -88q-23 -17 -120 -40q-35 -24 -80 -24h-76q-15 0 -176 40h-8l-108 -24q-55 4 -68 4q-10 0 -108 -4q-124 37 -124 180
q-12 55 -12 80v36q0 39 -8 148q0 259 64 332q48 68 144 68q94 -20 104 -20q8 0 76 8q141 -14 172 -44q24 -28 24 -64l-12 -96l12 -104q0 -13 -4 -68q4 -70 4 -84q-8 -60 -8 -100v-8q8 -60 52 -60h20q41 0 72 72l8 56q-4 73 -4 92q0 20 4 148q0 4 4 4l-4 20v40q0 257 -44 312
q-53 66 -164 100q-51 16 -92 20q-44 -4 -80 -4q-21 0 -56 8q-196 0 -300 -40q-156 -42 -156 -136q0 -12 -12 -100v-40l4 -24q-7 -50 -16 -280v-24q0 -47 8 -128q0 -14 -4 -84q4 -48 4 -72q-12 -42 -12 -64q16 -58 20 -176q19 -60 56 -88q97 -56 124 -56q55 4 68 4
q76 -4 76 -8q27 4 44 4h20q127 -12 156 -12q57 12 80 12h4q8 0 76 -8q78 0 164 60q80 100 148 100q132 -9 132 -64l8 -64q0 -53 -152 -180q-171 -64 -204 -64q-21 0 -148 -20q-32 0 -116 -4q-111 4 -204 4q-43 8 -56 8h-8q-70 -8 -72 -8q-26 0 -184 32q-102 0 -256 184
q-36 136 -36 184q8 60 8 100v24q0 29 -32 180q0 11 24 128q0 10 -4 104q4 79 4 104q-8 30 -8 56v16q16 109 16 160q0 80 -8 80l40 156q24 66 120 136q42 27 180 52q0 6 60 16q22 -4 36 -4t132 32zM818 713q4 -27 4 -44q-16 -86 -16 -132v-16q10 -60 60 -60h4q48 11 48 48v16
q0 30 16 136q-17 124 -60 124h-4q-45 0 -52 -72z" />
    <glyph glyph-name="A" unicode="A" horiz-adv-x="1149" 
d="M503 1460q89 -16 124 -16q68 8 76 8q184 0 184 -52q17 0 44 -408l48 -264q7 0 12 -160q15 -11 20 -256q36 -130 36 -260q0 -80 -176 -80q-180 15 -180 52q-8 0 -16 48l4 20v12q0 101 -64 192q-31 12 -44 12h-20q-44 0 -80 -88v-112q-29 -120 -80 -120h-12q-54 0 -128 -20
q-148 0 -148 92q-4 21 -4 48q24 76 24 108h4l-4 28v40q0 66 36 284q0 47 40 192v28q0 19 -4 40q4 15 4 36q0 4 -4 4l4 8v16q29 304 64 468q38 92 172 92q0 5 68 8zM523 728q0 -60 52 -60q40 17 40 48v12q-7 44 -44 44h-20q-28 -20 -28 -44z" />
    <glyph glyph-name="B" unicode="B" horiz-adv-x="1223" 
d="M478 1460q82 -16 116 -16h8q3 0 80 8q96 0 236 -44q71 -57 116 -156q16 0 28 -140q0 -250 -60 -344l-4 -24v-12q0 -15 60 -88q17 -39 32 -188q0 -38 -12 -144q0 -23 4 -64q0 -77 -96 -208q-80 -52 -164 -52l-20 4q-72 -16 -92 -16q-82 8 -112 8q-76 -13 -76 -16l-20 4
h-56q-4 0 -4 4q-4 0 -4 -4q-26 0 -124 16q-55 -12 -80 -12q-77 0 -100 92v4l8 96l-16 208q4 26 4 52v52q0 4 -4 4l4 8q0 19 4 92q-4 50 -4 52l8 72q-4 70 -4 88q0 26 8 112q-4 115 -12 192q8 72 12 156q-8 72 -8 104q0 51 72 88q41 5 48 8q41 -4 64 -4q96 0 160 8zM514 1068
v-4q0 -49 -4 -120q12 -80 80 -80h12q90 0 108 140v12q0 63 -92 128h-12q-92 -20 -92 -76zM502 488q0 -44 8 -76q-4 -22 -4 -36q0 -58 64 -80q7 -4 20 -4h20q86 0 116 144v12q0 82 -92 132q-21 4 -24 4q-95 0 -108 -72v-24z" />
    <glyph glyph-name="C" unicode="C" horiz-adv-x="1207" 
d="M490 1476q175 -5 208 -12l8 4q244 -26 244 -68q76 -69 76 -120q23 -41 48 -248q-14 -124 -116 -124q-106 4 -168 4q-76 30 -76 124q0 83 -112 120h-8q-82 0 -96 -128v-4q0 -18 8 -68l-16 -92h4q-4 -8 -4 -12q0 -21 4 -36q-8 -77 -8 -100q4 -74 4 -108q-12 -56 -12 -72v-4
q0 -118 68 -212q28 -20 52 -20h12q95 0 108 136q0 82 112 108q27 4 44 4h12q176 -15 176 -64q5 0 8 -28q-4 -67 -4 -104q0 -18 4 -52q-36 -196 -68 -196q-18 -58 -128 -112q-45 -36 -188 -36q0 -6 -60 -8q-270 0 -292 36q-129 69 -172 208q-28 142 -28 184q-4 74 -4 144
q4 245 4 288q-8 68 -8 108q0 52 8 84q-4 21 -4 40q0 301 192 400q54 16 168 36z" />
    <glyph glyph-name="D" unicode="D" horiz-adv-x="1235" 
d="M402 1460q20 0 80 -12q98 4 108 4q201 -12 276 -20q176 -81 176 -156q52 -184 52 -368q8 0 8 -132q0 -18 -8 -124q8 -68 8 -92v-20l-24 -148v-24l4 -24q-12 -70 -16 -172q-69 -128 -96 -128q-38 -31 -216 -68q-90 0 -168 -4q-53 12 -92 12q-17 0 -80 -16l-28 4h-16
q-216 12 -216 52q-24 93 -24 120t8 88q-8 70 -8 84q0 10 8 68q-5 160 -12 212q16 120 16 188q0 24 -8 72q4 80 4 108q0 21 -8 72q7 49 12 200q-12 67 -12 80v24q0 46 68 96q135 24 204 24zM494 936q0 -53 16 -192q-8 -40 -12 -300q0 -79 84 -116h8q93 0 124 108q11 0 24 148
q-8 47 -12 88l4 28q-4 54 -4 80q8 86 8 104q-12 163 -36 184q-28 44 -76 44h-12q-108 0 -108 -124q-7 0 -8 -52z" />
    <glyph glyph-name="E" unicode="E" horiz-adv-x="1043" 
d="M278 1460q81 -16 116 -16q97 8 108 8h60q87 0 128 8q200 -11 200 -64q7 -20 16 -144q0 -107 -96 -120q-272 -10 -272 -32q-40 -39 -40 -96q0 -84 48 -112q147 -20 152 -20l92 12q112 -15 112 -100q-12 -149 -36 -176q-34 -32 -68 -32h-44q-49 0 -120 4
q-140 -19 -140 -128v-20q0 -98 116 -108l120 -16h68q100 -12 100 -76q0 -28 12 -140q0 -73 -88 -104q-47 -16 -72 -16h-20q-52 0 -108 -4l-220 16q0 -4 -4 -4v4l-76 -16q-132 0 -168 48q-20 44 -20 68q0 26 8 68l-8 52q4 61 4 112v72q0 15 -12 92l12 80q-4 41 -4 64v8
q0 71 4 116q-4 38 -4 72q0 21 4 68q-4 34 -4 52q0 20 4 60q-4 45 -4 80q4 50 4 52q-8 33 -8 72q8 82 8 112v44q0 100 140 100z" />
    <glyph glyph-name="F" unicode="F" horiz-adv-x="993" 
d="M362 1460q91 -16 116 -16l68 8q97 -4 124 -4q28 0 108 8q92 0 124 -72v-12q0 -18 -8 -64q4 -58 8 -64q0 -120 -124 -120h-28q-4 0 -4 -4q-20 8 -72 8h-12q-110 0 -152 -80q-7 -19 -12 -72q13 -124 112 -124q219 0 268 -48q20 -29 20 -52q-10 -196 -60 -196
q-64 -20 -96 -20q-45 8 -64 8h-8q-128 0 -168 -68q-7 -15 -12 -40q4 -11 12 -64q0 -99 -8 -264q4 -24 4 -60q-26 -80 -120 -80h-36q-113 0 -192 48q-20 50 -20 124l8 76l-12 96l12 180q-8 49 -8 92q0 59 8 136q0 19 -12 152q0 12 8 80q-4 72 -8 88q4 111 12 184q-8 73 -8 88
q0 140 168 140q0 4 64 8z" />
    <glyph glyph-name="G" unicode="G" horiz-adv-x="1191" 
d="M538 1480h4q164 -8 280 -32q119 -32 148 -84q68 -106 68 -220q8 0 8 -48v-12q0 -80 -120 -80q-21 -4 -76 -4q-132 10 -132 48q-57 108 -104 108q-112 -23 -112 -52q-28 -36 -28 -84v-76q0 -81 52 -108h4q63 0 260 16h4l128 -12v4q108 -17 108 -48q17 0 28 -140
q-12 -144 -12 -180q8 -48 8 -76v-32q-23 -236 -52 -236q-51 -114 -168 -160q-132 -24 -236 -24q-17 0 -44 4q-19 -4 -56 -4q-64 0 -196 48q-95 43 -152 184q-20 78 -32 196q4 22 4 32q0 93 -20 380l16 116v48q0 13 -4 20l4 24v64q0 65 40 232q73 117 108 124q124 60 244 60
q0 4 28 4zM466 400q0 -72 112 -108h32q116 24 116 144q0 90 -164 120h-12q-62 0 -84 -132v-24z" />
    <glyph glyph-name="H" unicode="H" horiz-adv-x="1286" 
d="M414 1461q75 0 88 -100v-16q0 -32 -8 -112q16 -91 16 -104q0 -23 -4 -100q0 -69 72 -112q34 -16 52 -16q72 0 92 132q4 21 4 48v292q0 50 56 68q102 20 112 20q175 0 200 -56q20 -49 20 -80q-8 -94 -8 -172v-236q0 -66 -8 -112q5 -220 12 -220q-4 -102 -8 -392
q4 -56 4 -96q0 -88 -80 -104q-15 0 -100 -16h-64q-108 0 -128 100q-24 85 -24 128v4q0 60 16 136q-4 27 -4 44v68q0 94 -56 112q-36 8 -52 8h-4q-62 0 -104 -84l-4 -24l12 -80l-8 -88q8 -68 8 -88q-8 -57 -8 -80v-20l4 -24q0 -91 -124 -116l-104 20l-64 -12q-80 10 -80 120
q-3 7 -8 56q4 49 4 96q-8 93 -8 116v12q16 349 16 404q-9 187 -16 256q4 146 8 204q-4 27 -4 84v32q0 44 52 84l40 12q18 0 92 -4q31 0 100 8z" />
    <glyph glyph-name="I" unicode="I" horiz-adv-x="694" 
d="M330 1465q176 -27 176 -68l4 -20q-4 -120 -4 -140q0 -9 16 -84l-8 -64l8 -188q-8 -68 -8 -88q0 -26 4 -80q-12 -176 -12 -220q0 -14 16 -88l-8 -64l8 -188q-9 -164 -40 -164q-71 -32 -116 -32h-64q-9 0 -16 4l-8 -4q-98 0 -136 88q-12 108 -12 140q4 43 12 72
q-8 52 -8 112h-4l4 8v16q12 75 12 88l-12 80v20q0 48 12 124l-20 200q16 77 16 88q-12 100 -12 136q16 61 16 80q0 31 -12 76q0 98 52 132q42 20 144 28z" />
    <glyph glyph-name="J" unicode="J" horiz-adv-x="1137" 
d="M792 1465q180 -26 180 -40q32 -85 32 -140q-4 -51 -12 -100q12 -358 12 -436q-12 -77 -12 -92q8 -95 8 -144q-16 -128 -20 -292q-24 -109 -80 -164q-114 -92 -224 -92q-54 0 -136 -16q-186 12 -268 40q-160 61 -160 152q-56 144 -56 288q12 128 80 128q230 0 240 -48
q36 -44 36 -124q36 -80 92 -80q69 0 104 92q0 41 20 176v72q0 51 4 116l-8 64l8 60q0 5 -4 40q4 93 4 96q-4 56 -4 72q4 22 4 32q-12 60 -12 84l12 92l-4 40q6 104 48 104q43 20 116 20z" />
    <glyph glyph-name="K" unicode="K" horiz-adv-x="1201" 
d="M238 1457q248 0 248 -44q14 0 24 -132q-4 -60 -4 -100v-24q0 -120 48 -120h4q56 0 128 200l64 180q24 40 48 40q80 -4 88 -4q10 0 104 4q120 -8 120 -44q8 0 8 -32q0 -41 -68 -172q-44 -140 -88 -252q0 -31 -52 -100q-8 -26 -8 -36v-28q0 -56 44 -176q0 -52 72 -208
q17 -74 68 -152q52 -150 52 -212q0 -64 -132 -64q-94 8 -100 8q-69 -4 -80 -4q-87 31 -116 92q0 81 -104 300q-28 28 -52 28q-48 0 -48 -120q8 -45 8 -72q-8 -77 -8 -108v-44q0 -71 -104 -84q-19 0 -92 4l-36 -4q-62 0 -120 52q-28 47 -28 124q8 54 8 92q0 14 -4 84
q12 62 12 84q0 40 -8 68q8 53 12 64q-8 52 -8 76q4 102 4 120q-16 101 -16 140q0 6 8 92q-4 64 -4 76q16 84 16 100q0 9 -8 60q0 13 4 68q-4 54 -4 76q0 84 100 104z" />
    <glyph glyph-name="L" unicode="L" horiz-adv-x="920" 
d="M350 1465q144 -16 144 -76q0 -15 -4 -100q0 -21 8 -68q0 -4 -4 -12q4 -50 4 -60q0 -36 -8 -160q8 -81 8 -116l-12 -60l12 -164l-12 -80q13 -212 44 -212q0 -40 276 -52q60 -20 60 -68q0 -25 12 -164q0 -88 -148 -88l-48 -12l-20 4h-56q-4 0 -4 4l-8 -4q-102 12 -120 12
q-84 -12 -84 -16l-20 4h-88q-82 0 -136 48q-16 27 -16 48q12 75 12 88q-8 46 -8 64t4 52q-8 52 -8 64q0 21 4 80q-4 73 -4 92q0 4 4 32l-8 68q8 57 8 84q0 7 -4 96q12 56 12 92q-8 48 -12 180q-4 0 -4 4q4 44 4 76v32q0 64 -4 172q0 91 116 104q80 12 108 12z" />
    <glyph glyph-name="M" unicode="M" horiz-adv-x="1698" 
d="M346 1465q87 -16 128 -16q18 0 72 8q67 0 120 -60q15 -43 28 -148q28 -65 52 -192q33 -88 68 -88q70 0 100 204q48 166 96 260q31 28 60 28h12q91 -12 124 -12q75 8 96 8h56q144 -7 144 -56q20 -32 20 -100v-152q0 -99 -8 -152l8 -80l-4 -8q8 -89 8 -128q-8 -71 -8 -92
q0 -43 8 -92q-4 -19 -8 -184q0 -10 4 -60l-8 -84q8 -39 8 -116v-44q0 -4 4 -4l-4 -8v-16q0 -71 -60 -92q-15 -8 -32 -8h-124q-132 12 -132 132v16q0 17 24 136v8l-20 80q16 78 16 120v16q0 88 -60 100q-44 0 -60 -80q-38 -54 -48 -144q0 -15 -48 -128q-18 -120 -52 -176
q-37 -68 -100 -68h-20q-100 21 -100 144q0 49 -84 236q-14 93 -60 168q0 28 -48 40h-4q-48 0 -48 -164q8 -48 8 -120v-16q-12 -91 -12 -108q16 -88 16 -108v-8q0 -56 -96 -84h-64q-184 13 -184 92q0 12 -4 28q8 92 12 224q-8 91 -12 112q8 40 12 248l-8 72q4 71 4 120v68
q8 90 8 96q0 13 -8 112q0 32 8 76q-8 59 -8 112q0 124 164 124q0 5 48 8z" />
    <glyph glyph-name="N" unicode="N" horiz-adv-x="1262" 
d="M254 1501q178 0 232 -32q56 -57 80 -152q16 -76 48 -176q72 -180 96 -180h20q36 0 36 56l-8 76q0 13 20 120q-16 86 -16 192q10 33 72 68q100 24 128 24q51 0 108 -68q16 -70 16 -120v-64q0 -83 4 -188q-8 -45 -8 -84q0 -21 8 -188q-12 -93 -12 -108q0 -17 8 -72
q0 -15 -4 -168q0 -23 4 -96q-4 -53 -4 -88q4 -88 4 -116q-15 -108 -88 -108q-97 -8 -124 -8q-184 0 -184 100q-32 81 -92 272q-18 19 -48 140q-30 47 -40 48q-44 0 -60 -148q4 -52 12 -72q-4 -98 -4 -156v-60q0 -84 -60 -100q-64 -20 -116 -20h-12q-124 0 -124 68
q0 77 -4 136q0 9 4 44l-8 224q4 0 4 4h-4l4 8q-4 118 -4 156q0 22 4 56q-4 25 -4 60q0 44 8 96l-8 48q4 74 4 124q0 63 -16 296q0 111 96 152q28 0 32 4z" />
    <glyph glyph-name="O" unicode="O" horiz-adv-x="1219" 
d="M534 1485q241 -16 284 -24q156 -39 156 -88q17 -17 72 -148q15 -71 20 -228q10 -46 20 -188l-16 -76q12 -125 12 -192q-43 -408 -64 -408q0 -86 -160 -156q-30 -12 -224 -28q-58 8 -92 8q-16 0 -72 -4q-68 0 -168 64q-38 0 -104 88q-68 164 -68 276q0 30 4 140
q-8 51 -8 96q0 28 8 68q0 33 -4 144q4 160 4 232q16 156 48 220q4 0 56 100q100 88 224 88q35 16 72 16zM494 941l4 -40q-4 -50 -4 -52q4 -92 4 -168q-16 -73 -16 -96v-16q0 -43 36 -220q24 -44 84 -44q92 0 116 156v48q0 60 4 108q-4 34 -4 52q4 98 4 108q-4 121 -12 176
q4 22 4 36v64q0 67 -100 104h-8q-96 -20 -96 -96z" />
    <glyph glyph-name="P" unicode="P" horiz-adv-x="1149" 
d="M402 1465q83 -16 124 -16q22 0 68 8q225 0 308 -44q0 -6 96 -100q60 -70 60 -336v-60q0 -234 -84 -364q-32 -68 -120 -104q-78 -20 -112 -20q-20 0 -60 4q-137 -36 -140 -36q-40 -11 -40 -204q-4 -16 -4 -28q8 -34 8 -88q-26 -92 -56 -92q0 -7 -52 -12q-36 0 -184 20
q-57 0 -72 108q-8 61 -12 188q4 77 4 100q0 13 -8 64l16 168q0 18 -12 88l16 80q0 40 -16 232q0 21 8 88q0 14 -8 68q18 256 44 256q0 19 228 32zM494 893q27 -136 88 -136h20q59 0 80 68q0 10 -4 108q4 97 4 112q-20 64 -64 64q-22 4 -36 4q-50 0 -72 -60q-4 -89 -16 -160z
" />
    <glyph glyph-name="Q" unicode="Q" horiz-adv-x="1168" 
d="M490 1477q80 -12 188 -20l76 12q54 -28 140 -40q120 -96 120 -184q16 -42 32 -140l-4 -56q16 -100 16 -108q-8 -54 -8 -104q0 -43 16 -168q-24 -249 -32 -428q-23 -71 -132 -196q-12 -33 -12 -48q0 -8 36 -136q0 -63 -92 -72q-4 0 -4 4l-28 -4h-40q-152 22 -152 40
q-61 69 -100 156q-15 28 -124 48q-168 54 -168 100q-88 123 -88 172q12 66 12 84q0 16 -36 132v16q0 16 12 68q-16 86 -16 92v4l24 224v8q0 20 -12 68q28 103 28 120q0 22 -4 76q7 76 108 196q64 59 236 84h8zM466 825q8 -40 8 -68q-8 -75 -8 -96v-68q18 -188 36 -188
q32 -56 80 -56q73 0 112 100q0 13 4 20l-8 540q4 22 4 32q0 82 -108 104h-20q-70 0 -88 -128q-8 -30 -12 -192z" />
    <glyph glyph-name="R" unicode="R" horiz-adv-x="1215" 
d="M634 1453q58 -20 172 -20q172 -44 172 -80q32 0 76 -176q0 -22 16 -140q-26 -272 -44 -272q-56 -62 -56 -140q0 -34 52 -152q4 -22 4 -36l-4 -40q0 -8 40 -192l20 -164v-4q0 -56 -112 -56q-74 -4 -124 -4q-136 11 -136 44q-9 0 -28 128q-20 45 -20 120q-16 55 -36 168
q-27 60 -56 60h-4q-52 0 -52 -128q-16 -51 -16 -112q0 -22 12 -124q-10 -148 -60 -148q0 -7 -96 -20q-180 0 -204 80q-24 106 -24 156q16 100 20 232q4 0 4 12q-4 88 -4 156v36q0 4 -4 4q4 8 4 12q0 63 -12 252q13 92 16 92l-4 8v4q0 52 -4 108q12 68 12 88q-12 70 -12 128
v4q0 104 132 104q31 4 64 4q124 -4 164 -4l20 4l24 -4q35 0 88 12zM498 997v-32q0 -84 88 -116h20q72 0 100 152q0 76 -84 112h-32q-59 0 -84 -68q-8 -28 -8 -48z" />
    <glyph glyph-name="S" unicode="S" horiz-adv-x="1151" 
d="M614 1477q328 -49 328 -120q20 -16 52 -176q-4 -26 -4 -52v-12q0 -4 -4 -4l4 -8q0 -120 -88 -120l-76 8l-56 -4q-70 0 -96 76q-30 84 -88 84h-20q-57 0 -92 -100v-28q0 -78 136 -112q40 -32 156 -72q33 -25 140 -76q37 -35 72 -116q24 0 40 -200q-16 -84 -16 -92l12 -104
q0 -49 -64 -164q-54 -85 -208 -120q-16 0 -16 -4l-8 4h-20q-15 0 -124 -20q-149 17 -220 28q-127 38 -164 104q-52 58 -52 224q15 168 104 168h108q119 0 140 -140q15 -36 52 -36h4q124 0 124 60v32q0 119 -72 156q-22 28 -164 72q-212 77 -212 124q-84 115 -84 272
q-6 0 -12 84q20 81 36 200q62 119 148 148l268 32q15 4 36 4z" />
    <glyph glyph-name="T" unicode="T" horiz-adv-x="964" 
d="M137 1445h68q64 0 124 -4q26 4 52 4q70 -4 84 -4l48 4q50 -8 56 -8q14 0 84 4q90 -4 112 -4q40 4 60 4q92 -20 92 -52q11 0 20 -68q-12 -63 -12 -96v-32q-15 -60 -72 -60l-24 4h-4q-164 0 -164 -164q-5 -71 -8 -76l4 -28q0 -58 -4 -248q0 -5 4 -212q-4 -44 -4 -76
q8 -53 8 -76q0 -14 -4 -84q0 -14 8 -96q0 -89 -152 -112l-72 24q-34 -4 -52 -4q-100 0 -100 56q0 134 -4 408l-4 28q4 25 4 56v112q0 8 -8 76v4q0 21 16 88q-4 56 -4 96v112q0 72 -112 96q-144 34 -144 72q-16 2 -20 92v40q0 124 124 124z" />
    <glyph glyph-name="U" unicode="U" horiz-adv-x="1223" 
d="M370 1445q103 0 132 -72q4 -16 4 -28q0 -24 -12 -80q24 -108 24 -124q-20 -100 -20 -120q0 -49 16 -148l-16 -112q0 -9 12 -132q-16 -87 -16 -100q30 -216 60 -216q0 -6 32 -12q120 11 120 100q8 0 8 36q0 28 -4 104q8 40 8 72q0 10 -12 60q0 142 20 248q-4 0 -4 4h4
l-4 8v20q0 4 4 4l-4 8v56q0 36 -12 132q0 19 4 40q-4 26 -4 52l16 92q0 16 -8 48q11 56 88 56h140q96 0 116 -36q12 -39 20 -172q-8 -46 -8 -68l16 -112q-6 0 -12 -208q8 -68 8 -92v-12q-12 -75 -12 -88v-132q0 -47 -12 -128q0 -13 8 -64q-13 -169 -40 -208
q-66 -116 -160 -144q-54 -8 -108 -24q-44 4 -76 4l-80 -12l-144 16q-3 0 -32 -4q-65 0 -168 60q-80 61 -116 232q0 61 -8 144q8 48 8 76q-20 185 -20 264q8 32 8 68v16q-8 100 -8 104q16 73 16 100q0 32 -8 104q0 10 8 52q-4 61 -4 112v64q0 53 64 80q21 12 168 12z" />
    <glyph glyph-name="V" unicode="V" horiz-adv-x="1144" 
d="M881 1449q140 -4 140 -24q32 -23 32 -88q-40 -324 -56 -408q-40 -205 -60 -432q-20 -55 -48 -288q-11 -12 -16 -132q-26 -100 -116 -100h-40q-35 0 -80 4q-67 -12 -76 -16l-84 24q-74 -4 -124 -4q-67 0 -96 168q0 89 -36 280q-36 180 -48 280q4 35 4 60v12q0 16 -28 120
q0 38 -20 176q0 4 4 12q0 21 -28 148q-8 34 -8 88v52q0 47 120 56q0 4 64 8q164 -6 164 -32q21 -19 44 -128q28 -196 28 -264q0 -24 -4 -72q11 -128 64 -128h4q42 0 72 112v4q-8 58 -8 64v24q28 90 28 108l-8 92q0 129 64 200q23 15 152 24z" />
    <glyph glyph-name="W" unicode="W" horiz-adv-x="1792" 
d="M337 1472q53 0 112 -56q20 -24 20 -60q0 -5 -4 -40q12 -77 12 -112v-124q28 -219 40 -264q20 -36 44 -36h8q54 0 64 168q15 36 32 172l-4 36q24 90 36 192q22 63 36 88q34 28 108 28q134 -4 180 -4q39 -15 52 -44q22 0 72 -372q0 -52 40 -192q16 -84 56 -84h12
q56 33 56 252q12 54 12 64q-4 102 -4 120q16 60 24 184q59 76 108 76h124q72 0 104 -64q0 -18 4 -24q-12 -143 -32 -236q0 -10 4 -108q-36 -184 -36 -216v-100q0 -32 -24 -112l-4 -24q4 -60 4 -100v-20q0 -52 -36 -244q0 -48 -24 -180q0 -39 -268 -64q-83 20 -108 20l-64 -4
q-37 0 -72 72q0 31 -40 196q-12 198 -40 352q-17 28 -32 28q-64 0 -64 -92q-36 -88 -36 -256q-28 -98 -40 -224q-35 -78 -216 -92q-98 20 -124 20q-13 0 -88 -12q-81 0 -104 132q-18 0 -28 244l-16 156q-19 25 -32 256q-28 180 -36 340q-7 0 -8 52q0 24 4 84q-24 88 -24 148
q0 72 120 72q49 0 120 8z" />
    <glyph glyph-name="X" unicode="X" horiz-adv-x="1185" 
d="M895 1472q119 0 156 -80v-32q0 -38 -76 -228q0 -37 -44 -140q0 -54 -32 -168q-4 -5 -4 -28q0 -25 28 -164q0 -34 88 -264q19 -163 64 -236q8 -30 8 -56q0 -92 -156 -92h-36q-176 25 -176 64l-68 228q-23 80 -64 80q-76 -12 -76 -148q-38 -228 -120 -228l-76 12
q-86 -8 -112 -8q-68 0 -100 72v8q32 169 72 240q40 222 76 256q24 22 24 84l-4 8q0 42 32 124q4 7 4 20q0 22 -36 120q0 34 -44 140q0 43 -32 144q0 34 -48 148l-4 40v12q0 51 76 64h12q64 0 172 4q128 -24 128 -128q0 -81 68 -120h16q64 18 64 64q33 184 156 184z" />
    <glyph glyph-name="Y" unicode="Y" horiz-adv-x="1000" 
d="M265 1468q38 0 108 -52q17 -21 52 -148l28 -104q27 -32 48 -32h4q61 0 92 200q19 30 48 96q25 26 112 36q89 -4 144 -4q63 0 72 -76v-24q0 -34 -48 -144q0 -53 -56 -188q0 -16 -68 -172l-56 -212q-36 -94 -36 -108q-8 -114 -8 -172q4 -206 4 -240q-12 -104 -56 -116
q-39 -24 -180 -36q-85 0 -152 72q-16 47 -16 72l16 100q0 11 -4 80l4 36q-8 46 -8 112v52q0 57 -112 356q0 23 -48 116q-36 136 -64 212q-69 187 -72 216q0 68 112 68q20 0 140 4z" />
    <glyph glyph-name="Z" unicode="Z" horiz-adv-x="1112" 
d="M289 1472q71 -12 88 -12q86 12 112 12q133 -8 152 -8h228l24 -4q7 4 20 4h44q56 0 80 -76q12 -27 12 -44v-16q0 -74 -84 -192l-148 -260q-71 -131 -132 -224q-53 -113 -100 -192q-28 -38 -28 -68v-4q0 -59 80 -68q10 0 52 8q304 -15 304 -32q48 -51 48 -116l-8 -88
q0 -2 4 -16q-11 -88 -80 -88q-21 4 -24 4q-9 0 -160 -8q-87 12 -108 12q-45 -12 -192 -24q-84 16 -96 16q-75 -8 -96 -8h-12q-152 19 -152 60q-21 0 -24 252q0 50 76 176q30 81 76 144q66 61 112 176l80 108q8 41 76 168v16q-19 60 -72 60q-50 0 -124 4l-48 -4
q-160 0 -160 108q0 200 56 200q0 15 124 24z" />
    <glyph glyph-name="bracketleft" unicode="[" horiz-adv-x="758" 
d="M316 1664q228 -12 252 -12q25 0 132 4q52 -28 52 -88q0 -148 -68 -148h-8l-56 12q-175 0 -212 -116l-4 -28q12 -59 12 -72q0 -39 -4 -84q4 -59 4 -104q-12 -80 -12 42q0 -33 12 -84v-54q-4 -43 -4 -96q8 -46 8 -80q-12 -146 -12 -168v-12q0 -49 8 -92q-8 -46 -8 -112v-40
q0 -31 8 -108q-8 -68 -8 -92q0 -61 76 -104q35 -16 96 -16q9 0 88 8q82 0 96 -100q-23 -128 -56 -128q0 -4 -20 -8l-20 4h-32q-12 0 -76 -12l-80 16q-182 -8 -200 -8q-128 21 -128 80q-11 22 -20 80q8 54 8 68q-4 157 -4 192h-4l4 8q0 19 -4 40q4 142 12 200v40q0 13 -4 20
l4 24v52q0 44 -8 76q4 52 4 84q0 46 -8 192l12 150q0 10 -8 -158q4 60 4 88q-8 196 -8 212q0 28 4 104q0 5 -4 40q4 62 4 128q11 148 68 148q77 12 112 12z" />
    <glyph glyph-name="backslash" unicode="\" horiz-adv-x="637" 
d="M14 1647q102 0 130 -76q29 -91 69 -164q46 -162 72 -187q18 -91 42 -133q46 -149 61 -172q54 -169 69 -198q34 -97 49 -126q28 -111 42 -122q50 -134 65 -156q58 -156 95 -313q42 -74 42 -114q0 -73 -65 -88h-7q-86 0 -138 19q-83 92 -83 210q-55 113 -69 179
q-118 288 -118 324q-115 300 -115 347q-38 132 -83 198q-46 149 -65 164q-20 95 -35 122q-72 140 -72 195l4 15q0 66 107 76h3z" />
    <glyph glyph-name="bracketright" unicode="]" horiz-adv-x="758" 
d="M165 1664q21 -4 24 -4q59 0 160 4q215 0 244 -44q32 -38 32 -108l-16 -116q0 -20 12 -88q4 -210 4 -244q-4 -132 -8 -132l4 -24v-52q0 -34 5 -144t5 -208q-8 -59 -8 -80q16 -206 16 -240q-16 -206 -16 -244q0 -29 4 -92q-14 -64 -56 -64h-4q-32 0 -72 8l-196 -8
q-43 8 -56 8q-18 0 -92 -4q-144 0 -144 120v8q0 82 120 100q208 9 208 44q28 21 28 72v12q0 64 -8 128q0 14 4 84q-4 90 -4 112l16 152q0 12 -8 52q0 19 4 124l-10 84q0 22 -8 68q16 79 16 92v12q-8 131 -24 264q-39 92 -84 92q0 12 -96 16h-20q-14 0 -36 -4
q-100 0 -100 160q0 66 100 76q60 3 60 8z" />
    <glyph glyph-name="asciicircum" unicode="^" 
d="M510 1415q117 0 172 -148q42 -46 72 -136q53 -67 76 -188q124 -211 124 -300q0 -55 -76 -60h-80q-67 0 -100 84q-24 28 -36 84q-36 61 -64 152q-51 64 -96 72q-67 0 -88 -104q-68 -92 -104 -228q-50 -64 -124 -64h-24q-108 13 -108 80q0 27 44 124q0 24 48 104
q0 8 64 112q0 58 132 308q36 80 72 80q45 28 96 28z" />
    <glyph glyph-name="underscore" unicode="_" horiz-adv-x="966" 
d="M744 -3l48 -4q62 4 108 4q116 -13 116 -92q4 -1 4 -40v-8q0 -89 -68 -112l-28 -4l-24 4v-4q-4 0 -4 4q-84 -12 -180 -12h-168q-33 0 -96 12q-18 0 -52 -4q-11 0 -80 4q-79 -4 -104 -4q-48 8 -76 8h-104q-67 0 -80 88q11 148 64 148q7 4 20 4q18 0 52 -4q40 8 80 8
q54 0 96 -8q38 4 72 4q32 0 120 -12l100 16q60 -8 84 -8q20 0 100 12z" />
    <glyph glyph-name="grave" unicode="`" horiz-adv-x="855" 
d="M227 1403l28 -4h44q127 0 160 -68q7 -5 72 -104q64 -69 64 -112q0 -56 -108 -56h-36q-144 37 -188 104q-49 64 -100 120q-12 36 -12 60q0 39 76 60z" />
    <glyph glyph-name="a" unicode="a" horiz-adv-x="1141" 
d="M539 1447q59 -16 72 -16l128 12q140 -19 140 -60q16 0 40 -292q40 -163 40 -276q7 0 16 -76q-4 -38 -4 -72q0 -78 36 -232h-4q8 -20 8 -72v-48l24 -144l-4 -56q8 -52 8 -64q-23 -72 -52 -72q0 -8 -24 -12q-128 4 -128 8l-24 -4h-40q-89 0 -100 120q0 159 -64 192
q-28 3 -28 8q-100 0 -116 -140q0 -144 -28 -144q0 -27 -184 -44q-118 9 -136 44q-8 12 -16 48q0 57 28 208q-4 21 -4 24q32 155 32 320q0 19 52 280v12l-4 40q28 101 28 116q0 6 -4 56q40 163 40 268q19 56 112 56q35 4 44 4l36 -4q39 4 80 12zM503 727q13 -72 52 -72h8
q44 0 44 68q0 56 -44 80q-56 -17 -56 -60z" />
    <glyph glyph-name="b" unicode="b" horiz-adv-x="1237" 
d="M520 1447l68 -16q2 0 52 4q331 0 388 -152q28 -44 52 -196v-100q0 -75 -80 -232q0 -9 -4 -16q5 -33 88 -168l20 -184q-20 -212 -36 -212q-59 -130 -88 -144q-78 -52 -132 -52l-36 4l-72 -12q-15 0 -88 8q-27 0 -132 -20l-72 20h-48q-129 -8 -140 -8q-104 17 -104 64v4
q0 17 8 88l-16 116l8 192q-8 60 -12 160q0 7 4 48l-4 40q16 140 16 164q-12 82 -12 104q0 107 8 212q-8 57 -12 160q17 112 76 112q0 4 4 4q98 -4 156 -4h28q57 0 112 12zM516 1063q4 -70 4 -84q-4 -35 -4 -40q25 -80 80 -80q66 0 112 92l4 24v44q-11 108 -96 108h-12
q-76 0 -88 -64zM524 515v-20q0 -24 -12 -100q0 -97 92 -112h20q100 13 100 96q-1 164 -92 192q-7 4 -16 4q-92 -13 -92 -60z" />
    <glyph glyph-name="c" unicode="c" horiz-adv-x="1173" 
d="M487 1467q63 -8 108 -8h4q19 0 64 8q149 -12 212 -40q33 0 76 -44q84 -98 84 -148l28 -116q-19 -192 -48 -192q-43 -36 -104 -36h-84q-80 0 -104 60q-7 17 -24 112q-31 72 -84 72h-28q-67 0 -88 -80q-16 -73 -16 -100l16 -236q-12 -65 -12 -100q0 -40 4 -100l-8 -96
q0 -95 96 -132h32q82 0 120 192q19 48 128 48q24 0 84 -4q21 4 40 4q63 0 88 -128v-8q0 -16 -40 -220q0 -86 -60 -116q-90 -88 -128 -88q-80 -28 -216 -28q0 -8 -28 -8h-16q-9 0 -68 16q-27 -4 -44 -4q-15 0 -96 28q-144 22 -144 52q-84 80 -84 304q-16 0 -36 324
q-4 0 -4 36v4l20 184q0 7 -8 80l20 80q-4 59 -4 80q26 168 60 204q34 60 96 88q0 19 132 36q37 17 64 20z" />
    <glyph glyph-name="d" unicode="d" horiz-adv-x="1214" 
d="M412 1447l68 -16l48 4h184q52 0 72 -8l24 4h32q70 -13 156 -76q88 -95 88 -180q12 -33 20 -148q0 -123 -20 -220q0 -49 20 -140q0 -16 -4 -72q12 -86 12 -180q0 -189 -100 -348q-82 -92 -268 -92q0 -4 -80 -8q-60 4 -124 4h-48q-16 0 -68 -12h-20q-58 20 -68 20h-112
q-76 0 -76 168q0 8 16 100q-11 60 -20 196l12 68q-8 83 -8 144q8 71 8 88q-8 97 -8 108v12q0 36 12 112q-7 26 -12 164q-4 0 -4 24q8 65 12 76q-4 22 -4 36q0 136 24 136q0 20 112 28q18 0 52 -4zM512 1043q4 -74 4 -124q0 -19 -12 -136v-12q16 -90 16 -100q-8 -45 -8 -64
v-72q0 -47 8 -128h-4q0 -84 72 -84q0 -8 56 -8q70 0 96 160q-8 77 -8 108v24q0 64 4 172q-8 36 -8 52l12 120q0 88 -92 156q-26 16 -60 16q-58 0 -76 -80z" />
    <glyph glyph-name="e" unicode="e" horiz-adv-x="1057" 
d="M348 1460q88 -16 128 -16q22 0 60 8q69 -4 112 -4q30 0 140 8q136 -9 136 -68q-4 -89 -4 -144v-4q-11 -108 -84 -108q-46 -8 -88 -8q-98 4 -108 4q-124 -20 -124 -104v-4q0 -73 80 -136q4 0 12 -4q74 4 124 4h60q91 0 104 -44q24 -71 24 -176q0 -66 -124 -88q-45 4 -84 4
q-200 0 -200 -116q15 -140 104 -140q0 -11 228 -20q66 0 76 -120v-44q-9 -152 -56 -152q0 -16 -160 -20q0 7 -252 12q-48 -12 -56 -12q-188 0 -232 56q-20 32 -20 132v60l12 88q0 13 -8 112l12 72q-16 77 -16 88q0 90 4 168q-4 89 -4 184l12 108q-8 87 -8 120q0 22 8 64
q-12 83 -12 116v4q0 63 52 92q69 28 152 28z" />
    <glyph glyph-name="f" unicode="f" horiz-adv-x="1019" 
d="M436 1460q89 -16 124 -16q22 0 60 8q71 -4 120 -4h64q120 0 120 -108q0 -41 4 -64q-15 -148 -104 -148h-12q-32 0 -84 4q-176 -27 -176 -40q-36 -25 -36 -84q6 -144 48 -144q0 -10 224 -16q112 -19 112 -76q12 -16 12 -76v-16q0 -106 -96 -136h-4q-37 0 -68 4
q-176 0 -176 -36q-52 -36 -52 -132q-5 0 -8 -60q12 -95 12 -108q0 -12 -12 -60q4 -27 4 -44v-56q0 -76 -100 -76h-56q-89 12 -116 12h-20q-47 0 -68 104v12q8 103 8 140v4l-16 148v48l24 160q-20 98 -20 132q0 62 16 160q0 26 -20 168v32q0 70 24 228q0 108 24 108
q0 17 244 28z" />
    <glyph glyph-name="g" unicode="g" horiz-adv-x="1229" 
d="M628 1480h12q103 -12 212 -32q120 -33 152 -88q72 -95 72 -192v-84q0 -62 -56 -76q-49 -8 -56 -12q-71 12 -176 16q-28 15 -72 88q-42 39 -116 56q-59 0 -92 -136q-4 -4 -4 -32v-28q0 -110 68 -128h12q25 0 88 20q42 -4 68 -4q81 0 128 8q172 -21 172 -36q44 -31 44 -88
v-20q0 -63 -4 -128l16 -100q-16 -55 -20 -192q0 -98 -56 -192q-42 -89 -96 -104q-109 -44 -168 -44h-96q-4 0 -4 -4q-4 0 -4 4l-28 -4h-60q-39 0 -168 32q-66 0 -104 44q-58 30 -84 124q-52 141 -52 284q-6 0 -8 40q4 70 4 84q-8 66 -8 104v4q0 7 12 96v12l4 8h-4q0 4 4 4
l-8 68q4 32 12 60q-4 84 -4 136v44q0 21 24 104q43 192 84 192q48 68 164 68q34 11 196 24zM504 472v-4q0 -168 140 -168q96 15 96 68v8q0 127 -48 148q-14 0 -120 76h-16q-28 0 -52 -128z" />
    <glyph glyph-name="h" unicode="h" horiz-adv-x="1281" 
d="M984 1443q19 -12 116 -20q32 -23 32 -60v-12q0 -34 -8 -84q8 -155 20 -268q-8 -60 -8 -100l12 -80q-9 -190 -24 -288q0 -38 20 -268q-8 -68 -8 -80q8 -79 8 -96q0 -99 -160 -128q-64 20 -116 24l-8 -4q-104 11 -104 52q4 73 4 92q0 31 -4 112q4 29 4 32q-4 42 -4 68
q0 21 4 80q-14 140 -92 140q-5 4 -28 4q-108 -16 -108 -108v-124q8 -88 8 -92l-12 -128v-64q0 -72 -108 -72h-88q-8 0 -76 -8h-4q-35 0 -88 72q0 8 -8 28q8 38 8 60l-16 192l12 120l-8 156q4 80 8 296l-16 160q8 77 12 148q-4 86 -4 120q0 124 84 124q7 0 64 -8q73 4 92 4
q140 0 140 -84l4 -20l-12 -84q12 -86 12 -136v-20q0 -16 -4 -32q0 -129 76 -180q48 -3 48 -8q88 11 88 76q8 0 12 56q0 24 -4 72l8 52q0 20 -4 60q2 212 28 212q27 40 172 40q0 4 28 4z" />
    <glyph glyph-name="i" unicode="i" horiz-adv-x="673" 
d="M288 1435h92q136 -7 136 -52q6 0 16 -56q-4 -56 -4 -96v-44q-16 -100 -16 -108l20 -124v-20q0 -25 -4 -60l12 -104q-12 -129 -16 -264q4 -31 4 -68q-16 -57 -16 -88v-8q20 -108 20 -124q0 -22 -4 -76q8 -68 8 -80q-9 -88 -88 -88q-86 -4 -120 -4q-144 11 -144 28
q-36 74 -36 168q0 21 4 156q-4 94 -4 128q12 53 12 72q-12 64 -12 76v12q0 59 16 140q-16 80 -16 148v4q0 49 8 92q-4 87 -12 164l16 92q0 11 -16 80q0 104 144 104z" />
    <glyph glyph-name="j" unicode="j" horiz-adv-x="1103" 
d="M881 1439q88 -5 88 -48q15 -28 24 -152q-4 -56 -4 -108l12 -100q-12 -99 -12 -184v-16q0 -28 8 -76l-16 -116q0 -59 12 -160q-8 -76 -8 -88q0 -22 4 -76q-29 -183 -80 -252q-100 -100 -188 -100q0 -4 -48 -16l-68 8q-50 -12 -92 -16q-202 28 -212 28q-151 54 -184 120
q-35 46 -56 276q19 164 80 164q35 4 44 4q125 -4 160 -4q52 -21 52 -80q21 -148 96 -148q101 0 128 136q-4 93 -4 96q8 51 8 60q-12 70 -12 88v40q0 85 24 208q0 15 -12 96q0 9 4 16q-5 168 -16 204q4 54 4 80q-4 50 -4 52q0 47 100 60q22 -4 36 -4h16q23 0 116 8z" />
    <glyph glyph-name="k" unicode="k" horiz-adv-x="1242" 
d="M276 1439q220 -14 220 -24q26 0 32 -156v-16l-4 -20q0 -153 64 -180h16q72 58 72 152q85 212 120 212q20 32 228 32q96 0 96 -68q-20 -126 -52 -156q-66 -179 -80 -204q-67 -165 -88 -244v-16q0 -54 56 -140q15 -87 60 -196q11 -21 32 -116q92 -177 92 -248v-16
q0 -44 -48 -60q-90 -12 -100 -16q-192 20 -216 20q-40 23 -40 72q-48 152 -116 292q-28 24 -44 24q-41 0 -56 -144q4 -16 4 -28q0 -16 -24 -124q0 -88 -76 -88q-107 -16 -144 -16q-88 0 -120 56q-16 63 -16 80l12 128l-12 76q12 68 12 100v60q0 10 -8 128v12l4 24l-4 8
l8 112q-8 67 -8 88q8 95 8 132q0 8 -8 56q8 167 8 188q-8 66 -8 84q0 91 52 116q39 24 76 24z" />
    <glyph glyph-name="l" unicode="l" horiz-adv-x="934" 
d="M412 1443q108 -38 108 -92l-4 -40v-32q0 -23 8 -116q0 -19 -12 -136q4 -94 4 -128q-12 -108 -12 -132q0 -18 16 -128q-8 -99 -8 -172q11 -148 72 -148q71 -16 136 -16h72q96 -17 96 -96q4 -107 4 -132q-11 -104 -88 -104l-40 -8q-3 0 -24 4q-168 4 -236 4l-76 -12
q-77 24 -80 24q-61 -4 -112 -4h-4q-62 0 -84 116v60q0 38 8 104q-12 152 -12 184q0 10 12 88q-8 75 -8 96v36q12 75 12 88l-12 80v44q0 21 8 96q-12 181 -12 208q0 18 12 64q-4 80 -4 120q0 59 80 68q38 4 72 4v4q8 -4 12 -4q7 0 96 4v4z" />
    <glyph glyph-name="m" unicode="m" horiz-adv-x="1689" 
d="M1320 1453q37 -16 164 -20q52 -14 52 -112q0 -29 20 -116q-12 -68 -16 -196q12 -63 12 -80q-16 -63 -16 -76q16 -79 16 -92v-8q-8 -90 -8 -96v-12q0 -4 -4 -4l4 -8v-52q0 -28 12 -100q-12 -112 -12 -188q8 -68 8 -100l-16 -64q8 -47 8 -80q0 -68 -140 -68
q-51 -12 -76 -12h-8q-112 37 -112 96l12 80q-16 49 -20 184q-4 0 -4 36q0 40 12 128v16q0 84 -60 84q-53 0 -76 -164q-20 -73 -100 -300q0 -92 -68 -128q-44 -16 -76 -16h-16q-60 0 -96 164q0 43 -40 136q0 14 -52 164q-34 140 -100 140q-36 -17 -36 -76v-88q0 -38 4 -92
q-12 -72 -12 -92v-8q12 -109 12 -120q0 -136 -112 -136q0 -8 -68 -8q-132 13 -132 44q-19 33 -36 180q8 75 16 232q-12 77 -12 116q0 8 4 8l-4 28v52q8 159 8 172v28q0 39 -12 96l4 20q-4 84 -4 116q12 60 12 96q-8 82 -8 112v44q0 4 -4 4l4 8v32q0 53 68 72l72 16
q119 -4 200 -4h92q112 -24 112 -80q44 -121 44 -140q29 -232 108 -232h8q47 0 64 88q33 64 72 248q32 112 116 112q51 8 104 8q9 0 44 -4q6 0 68 12z" />
    <glyph glyph-name="n" unicode="n" horiz-adv-x="1241" 
d="M392 1461q116 0 152 -88q29 -20 48 -132q60 -146 60 -164q21 -156 88 -156q48 0 48 172q4 0 4 48q0 13 -8 60q0 24 4 72q-4 45 -4 84q0 27 64 68q42 32 172 32q80 -20 80 -76v-56q0 -18 -12 -72q0 -9 20 -144q0 -22 -4 -56q4 -50 4 -100l-12 -116q12 -110 12 -136
q-8 -109 -20 -184q12 -111 20 -288q-14 -194 -24 -212q-12 -17 -48 -28q-54 4 -80 4q-108 -16 -124 -16q-144 40 -144 152q-12 31 -52 180q-31 32 -68 204q-25 28 -44 28q-34 0 -52 -156q8 -109 8 -148q-8 -82 -8 -112v-8q0 -14 4 -36q0 -49 -76 -80q-79 -16 -92 -16
q-148 11 -148 52q-4 21 -4 24q0 41 12 208q0 40 -24 132q12 81 12 128v40q0 17 -8 88q8 63 8 84v76q0 51 -4 112q12 60 12 96l-20 116v8q0 72 8 140q-8 46 -8 84q0 72 156 88h92z" />
    <glyph glyph-name="o" unicode="o" horiz-adv-x="1229" 
d="M720 1473q71 -3 220 -68q47 -28 68 -56q80 -128 80 -360q-4 -74 -4 -92q12 -73 12 -92q0 -35 -8 -120q4 -92 4 -168q-12 -292 -40 -376q-60 -132 -124 -148q-61 -20 -164 -32q-30 -16 -68 -16h-4q-16 0 -128 12h-44q-34 0 -72 -4q-148 30 -148 56q-104 98 -104 140
q-28 86 -48 312q-4 14 -4 16q8 96 16 400q-8 57 -12 68q12 119 12 252q0 41 96 192q83 50 200 76q74 -4 132 -4h16q14 0 36 -4q65 16 80 16zM500 829q4 -5 12 -108q0 -68 -4 -136q4 -65 4 -148q18 -136 100 -136h8q88 20 88 88l20 128v88q12 103 12 192q-12 80 -12 100
q0 23 4 64q-15 180 -88 180q-9 0 -16 4q-90 0 -116 -164q0 -98 -12 -152z" />
    <glyph glyph-name="p" unicode="p" horiz-adv-x="1159" 
d="M508 1445q54 -4 76 -4q23 0 100 4q244 -20 244 -52q43 -27 92 -104q52 -106 52 -280q6 0 12 -64q-20 -131 -20 -164v-40q0 -18 -36 -160q-72 -65 -84 -104q-21 -28 -144 -52q-86 -16 -128 -16h-20l-24 4q-62 0 -92 -68q-24 -113 -24 -192q0 -13 4 -116q-17 -64 -128 -64
q-12 0 -28 -4q-147 0 -200 80q0 9 -4 44q0 19 12 104v8q0 22 -8 60q4 102 4 136q0 20 -12 116v24q0 6 8 64v8q-16 65 -16 80q20 169 32 236q-16 73 -16 92q8 97 8 108q0 32 -16 128v4q8 68 8 76v4q0 17 -4 44q16 56 92 56h112q38 0 92 -4zM512 853q0 -62 84 -112l24 -4
q52 0 92 140q-8 21 -8 84v44q0 68 -100 108h-4q-88 0 -88 -260z" />
    <glyph glyph-name="q" unicode="q" horiz-adv-x="1134" 
d="M495 1477q80 -12 188 -20l76 12q54 -28 140 -40q120 -96 120 -184q16 -42 32 -140l-4 -56q16 -100 16 -108q-8 -54 -8 -104q0 -43 16 -168q-24 -249 -32 -428q-23 -71 -132 -196q-12 -33 -12 -48q0 -8 36 -136q0 -63 -92 -72q-4 0 -4 4l-28 -4h-40q-152 22 -152 40
q-61 69 -100 156q-15 28 -124 48q-168 54 -168 100q-88 123 -88 172q12 66 12 84q0 16 -36 132v16q0 16 12 68q-16 86 -16 92v4l24 224v8q0 20 -12 68q28 103 28 120q0 22 -4 76q7 76 108 196q64 59 236 84h8zM471 825q8 -40 8 -68q-8 -75 -8 -96v-68q18 -188 36 -188
q32 -56 80 -56q73 0 112 100q0 13 4 20l-8 540q4 22 4 32q0 82 -108 104h-20q-70 0 -88 -128q-8 -30 -12 -192z" />
    <glyph glyph-name="r" unicode="r" horiz-adv-x="1225" 
d="M296 1472q64 -8 96 -8q77 8 104 8l84 -12q69 12 112 12q124 -20 196 -24q57 -16 128 -116q44 -61 44 -124q16 -17 24 -176v-8q0 -80 -40 -236q-76 -92 -76 -116v-20q0 -13 72 -204q28 -91 40 -288q12 -25 12 -72q0 -104 -108 -104q-80 0 -104 8q-27 -4 -44 -4h-28
q-112 22 -112 128q-16 149 -56 356q-23 44 -56 44h-8q-52 0 -52 -76q0 -31 4 -112l-12 -56q4 -27 4 -44q-12 -123 -12 -148v-24q0 -54 -72 -68q-14 0 -36 4q-65 -4 -116 -4h-16q-81 0 -108 76q-16 72 -16 80l4 28q0 10 -4 60l28 168q-20 100 -20 120v64q8 143 8 160v20
q-16 170 -16 216l28 148q-24 107 -24 144q0 137 56 172q35 28 92 28zM524 1000v-24q0 -88 52 -116l20 -4h8q69 0 104 100q0 10 4 32q0 91 -48 124q-51 16 -56 16q-84 0 -84 -128z" />
    <glyph glyph-name="s" unicode="s" horiz-adv-x="1093" 
d="M583 1492h48q99 -3 208 -52q49 -27 92 -136q40 -79 40 -128q0 -184 -184 -184h-12q-124 17 -124 60q-19 120 -96 120q-70 0 -96 -92v-32q0 -121 272 -192q45 -39 140 -72q75 -75 112 -168l4 -20q0 -26 -4 -68q4 -88 4 -156l4 -28q0 -105 -76 -264q-46 -60 -96 -60
l-116 -44q-61 -16 -108 -16h-44q-162 0 -312 60q-124 100 -124 264q-4 66 -4 100q0 59 100 104q35 4 44 4q164 -30 164 -68q5 0 32 -64q49 -68 100 -68q85 0 96 120v4q0 119 -128 160q-108 34 -152 80q-128 37 -176 112q-68 72 -68 160q-16 162 -16 176q16 226 56 240
q38 79 96 96l136 48h8q36 0 80 -4q44 8 100 8z" />
    <glyph glyph-name="t" unicode="t" horiz-adv-x="994" 
d="M393 1472q48 -12 80 -12q72 12 100 12h36q118 -8 128 -8h88q93 0 120 -56q20 -47 20 -76q-15 -172 -60 -172q0 -12 -188 -40q-36 -26 -36 -64q0 -35 4 -88q-5 -71 -8 -76l4 -8q-8 -104 -8 -124l12 -108q0 -21 -4 -80q8 -36 12 -72q-16 -103 -16 -168q0 -20 8 -80
q0 -198 -36 -244q-37 -32 -68 -32h-4q-13 0 -92 16q-3 0 -96 -4q-76 16 -76 144v124q0 3 -8 80l16 80q-12 59 -16 164q4 65 4 116v108q8 129 8 140v20q0 134 -76 164q-42 16 -140 20q-60 36 -60 100q-4 0 -4 4q3 161 36 184q45 32 104 32h76q60 0 140 4z" />
    <glyph glyph-name="u" unicode="u" horiz-adv-x="1237" 
d="M256 1464q17 0 184 -4q65 0 84 -184q-4 -93 -4 -96q8 -66 8 -100h4q-6 -38 -16 -80q4 -34 4 -56t-8 -124q12 -68 16 -68q-8 -24 -8 -104l4 -40q0 -4 -4 -4q0 -3 4 -24q-4 -108 -4 -128q17 -132 116 -132q88 9 88 80v100q0 60 8 96l-16 76q8 180 8 308q0 93 -4 268
q12 48 12 88v44q0 50 108 84h84q14 0 36 -4q7 4 16 4q80 0 108 -60q8 -14 12 -176q0 -2 -4 -52l12 -80q-4 -319 -12 -536q4 -34 4 -52l-8 -56q8 -54 8 -80q-18 -196 -36 -196q-25 -40 -60 -124q-106 -80 -236 -80q-24 -12 -80 -12h-92q-226 9 -240 36q-36 0 -144 108
q-56 99 -56 152v8q0 27 12 116v12l-16 108q0 24 4 96q-8 64 -8 128q0 38 4 76q-4 26 -4 52q0 12 4 76l-4 40l16 156l-12 84q0 224 28 224q41 32 80 32z" />
    <glyph glyph-name="v" unicode="v" horiz-adv-x="1137" 
d="M394 1468q85 -14 104 -316q0 -14 -4 -84q0 -20 32 -128q0 -23 4 -28h-4l4 -8v-28q14 -52 52 -52h4q48 30 48 144q0 21 16 96q-4 40 -4 60l20 144v84q25 72 72 100q19 12 60 12h132q132 0 132 -96q0 -36 -36 -136l-4 -24q4 -38 4 -72q-20 -87 -32 -200q-7 -21 -20 -140
q-12 0 -28 -196q-18 0 -28 -160q-40 -160 -56 -360h4q0 -80 -116 -80q-26 -15 -180 -28l-92 16h-4q-24 0 -92 -8q-82 0 -112 148q-13 0 -24 140q-20 39 -20 60v48l-36 272q-13 139 -28 196q-16 90 -16 108v8q0 22 4 56q-44 140 -44 312q-12 29 -12 60q0 59 96 76h8
q72 0 196 4z" />
    <glyph glyph-name="w" unicode="w" horiz-adv-x="1769" 
d="M334 1472q53 0 112 -56q20 -24 20 -60q0 -5 -4 -40q12 -77 12 -112v-124q28 -219 40 -264q20 -36 44 -36h8q54 0 64 168q15 36 32 172l-4 36q24 90 36 192q22 63 36 88q34 28 108 28q134 -4 180 -4q39 -15 52 -44q22 0 72 -372q0 -52 40 -192q16 -84 56 -84h12
q56 33 56 252q12 54 12 64q-4 102 -4 120q16 60 24 184q59 76 108 76h124q72 0 104 -64q0 -18 4 -24q-12 -143 -32 -236q0 -10 4 -108q-36 -184 -36 -216v-100q0 -32 -24 -112l-4 -24q4 -60 4 -100v-20q0 -52 -36 -244q0 -48 -24 -180q0 -39 -268 -64q-83 20 -108 20l-64 -4
q-37 0 -72 72q0 31 -40 196q-12 198 -40 352q-17 28 -32 28q-64 0 -64 -92q-36 -88 -36 -256q-28 -98 -40 -224q-35 -78 -216 -92q-98 20 -124 20q-13 0 -88 -12q-81 0 -104 132q-18 0 -28 244l-16 156q-19 25 -32 256q-28 180 -36 340q-7 0 -8 52q0 24 4 84q-24 88 -24 148
q0 72 120 72q49 0 120 8z" />
    <glyph glyph-name="x" unicode="x" horiz-adv-x="1146" 
d="M863 1456q168 -8 168 -52q8 0 8 -20v-4q0 -29 -80 -316q-57 -185 -64 -244v-24q0 -130 76 -292l16 -120q24 -29 44 -168q52 -125 52 -156q0 -66 -148 -88h-32q-13 0 -20 4l-24 -4q-59 0 -140 48q-36 43 -36 148q-16 24 -48 136q-20 36 -28 36h-24q-55 0 -76 -140
q-36 -161 -72 -192q-41 -28 -76 -28q-54 8 -68 8q-72 -16 -96 -16q-96 10 -96 84q0 27 44 192q0 75 84 276q14 106 48 160q11 0 16 56q0 77 -48 220q0 80 -68 224q0 91 -40 180v12q0 55 84 72h8q50 0 188 4q77 0 108 -120q37 -95 52 -120q18 -24 40 -24h8q21 0 40 60
q22 142 60 164q36 44 140 44z" />
    <glyph glyph-name="y" unicode="y" horiz-adv-x="1024" 
d="M289 1468q38 0 108 -52q17 -21 52 -148l28 -104q27 -32 48 -32h4q61 0 92 200q19 30 48 96q25 26 112 36q89 -4 144 -4q63 0 72 -76v-24q0 -34 -48 -144q0 -53 -56 -188q0 -16 -68 -172l-56 -212q-36 -94 -36 -108q-8 -114 -8 -172q4 -206 4 -240q-12 -104 -56 -116
q-39 -24 -180 -36q-85 0 -152 72q-16 47 -16 72l16 100q0 11 -4 80l4 36q-8 46 -8 112v52q0 57 -112 356q0 23 -48 116q-36 136 -64 212q-69 187 -72 216q0 68 112 68q20 0 140 4z" />
    <glyph glyph-name="z" unicode="z" horiz-adv-x="1095" 
d="M344 1460q94 -16 128 -16q22 0 68 8q64 -4 76 -4q161 12 172 12q216 -12 216 -52q28 -28 28 -60v-16q0 -74 -88 -204q-13 -41 -92 -152q0 -11 -92 -184q0 -18 -80 -140q0 -8 -104 -156q-28 -52 -28 -96v-24q0 -50 96 -56q47 0 156 -12h72q98 0 124 -40q16 -55 24 -128
q-9 -148 -60 -148q-11 0 -132 -20h-36q-12 0 -12 4l-16 -4q-118 0 -300 12q-76 -13 -76 -16l-20 4h-80q-176 16 -176 36q-36 59 -36 284q0 54 68 164q33 26 116 188l92 172q47 37 84 124q48 75 48 124q-15 56 -68 56h-40l-192 16h-12q-63 0 -84 132q14 152 40 152
q0 26 216 40z" />
    <glyph glyph-name="braceleft" unicode="{" horiz-adv-x="836" 
d="M731 1651q54 0 67 -70v-46q0 -81 -56 -95q-4 0 -11 -4q-47 11 -60 11q-127 -8 -127 -49q-15 0 -22 -99v-7q0 -20 7 -102q0 -14 -4 -63q23 4 41 -139q0 -133 -63 -242q-4 -24 -8 -32q0 -33 64 -109q7 -25 7 -39q-7 -47 -7 -60v-112l4 67q0 -3 -49 -306q6 -141 45 -141
q31 -24 112 -24h52q70 0 90 -88q-21 -116 -64 -116q0 -4 -3 -4q-44 4 -64 4q-58 -11 -63 -11q-78 18 -180 28q-75 19 -115 74q-53 61 -53 186q-3 0 -3 25q7 54 15 232q26 48 26 151q0 67 -41 109q-35 25 -131 42q-38 0 -45 57q6 133 45 133q134 27 134 53q38 32 38 63
q-8 212 -34 245q4 38 4 67q-19 83 -19 126v7q23 128 52 158q75 106 176 106q0 4 37 7q47 -4 49 -4q133 7 157 11z" />
    <glyph glyph-name="bar" unicode="|" horiz-adv-x="909" 
d="M437 1656h8q116 -16 116 -46q8 -13 8 -27q0 -31 -4 -129q12 -52 12 -70t-8 -63q16 -45 20 -69q0 -32 -16 -153l4 -53l-16 -185q16 -70 16 -83q0 -17 2 -80.5t-6 -137.5q0 -13 4 -60l-16 -172l16 -93q0 -13 -8 -56q12 -52 12 -86v-33q0 -24 -8 -103q0 -17 4 -66
q0 -113 -124 -113h-32q-116 17 -116 96q0 21 4 86q0 9 -8 66q12 88 12 103v7l-20 66v3l16 149l-8 146q8 28 8 50q0 45 -8 79q0 5 4 172l-4 20q0 3 4 3q0 4 -4 10q4 61 8 63q-4 29 -4 47v10q0 68 4 162q-8 42 -8 70q8 64 8 96q0 16 -8 39q4 84 4 133v13q0 22 4 43
q-4 13 -4 37q0 102 72 102q38 7 60 7z" />
    <glyph glyph-name="braceright" unicode="}" horiz-adv-x="833" 
d="M100 -219q-54 0 -67 70v46q0 81 56 95q4 0 11 4q47 -11 60 -11q127 8 127 49q15 0 22 99v7q0 20 -7 102q0 14 4 63q-23 -4 -41 139q0 133 63 242q4 24 8 32q0 33 -64 109q-7 25 -7 39q7 47 7 60v112l-4 -67q0 3 49 306q-6 141 -45 141q-31 24 -112 24h-52q-70 0 -90 88
q21 116 64 116q0 4 3 4q44 -4 64 -4q58 11 63 11q78 -18 180 -28q75 -19 115 -74q53 -61 53 -186q3 0 3 -25q-7 -54 -15 -232q-26 -48 -26 -151q0 -67 41 -109q35 -25 131 -42q38 0 45 -57q-6 -133 -45 -133q-134 -27 -134 -53q-38 -32 -38 -63q8 -212 34 -245
q-4 -38 -4 -67q19 -83 19 -126v-7q-23 -128 -52 -158q-75 -106 -176 -106q0 -4 -37 -7q-47 4 -49 4q-133 -7 -157 -11z" />
    <glyph glyph-name="asciitilde" unicode="~" horiz-adv-x="1062" 
d="M302 870h56q76 0 156 -44q57 0 168 -36h112q28 0 148 28h24q42 0 52 -56q0 -153 -108 -176q-80 -44 -124 -44q-94 12 -192 36q-56 0 -204 40q-41 8 -112 8q-91 -24 -172 -32q-53 0 -60 64v56q0 55 96 128q97 28 160 28z" />
    <glyph glyph-name="exclamdown" unicode="&#xa1;" horiz-adv-x="672" 
d="M372 -214q-75 12 -160 16q-56 31 -56 112v28q20 113 20 128q-12 101 -12 116q16 93 16 152v60q0 33 12 96q-4 104 -4 140q8 68 8 92v4q0 4 4 4l-4 8v60q0 39 68 68q77 20 144 20h24q84 0 84 -196q4 -3 4 -36q0 -28 -8 -84q16 -139 32 -380q5 0 12 -72q-16 -106 -16 -132
q0 -10 16 -88q0 -94 -132 -108q-43 -5 -52 -8zM316 1010q-64 0 -120 68q-20 44 -20 80q13 152 40 152q6 15 100 20q9 0 100 -16q35 4 44 4q64 0 76 -124l-4 -20q0 -4 4 -32q-15 -124 -120 -124q-26 0 -100 -8z" />
    <glyph glyph-name="cent" unicode="&#xa2;" horiz-adv-x="1139" 
 />
    <glyph glyph-name="sterling" unicode="&#xa3;" horiz-adv-x="1176" 
d="M513 1477q12 0 52 -8q48 8 76 8q276 -36 276 -68q112 -78 112 -232q0 -75 16 -156q0 -81 -108 -120l-148 -16q-92 26 -92 88v68q0 40 -40 80q-29 28 -104 28q-72 -5 -72 -60h-4l8 -72q-4 -15 -4 -32v-28q0 -4 -4 -4q0 -66 56 -164q4 0 12 -3q97 -56 132 -56
q240 0 240 -44q12 -2 55 -39q25 -116 -57 -169h-32q-22 0 -56 4q-59 0 -122 -33q-12 -38 -12 -48v-8q0 -88 128 -88q8 0 140 16q112 -16 112 -88v-32q-17 -188 -52 -188q-22 -48 -200 -48q-20 0 -60 -4q-36 15 -96 56q-47 24 -84 24h-16q-51 -16 -140 -72q-52 -16 -108 -16
q-99 0 -176 68q-20 24 -20 52v20q0 63 -12 112q0 80 124 100q84 45 84 100v8q0 64 -52 84l-140 36q-20 19 -20 44v32q0 18 32 92v16q-20 130 -40 220v4q16 116 16 168v48q0 23 36 80l28 104q57 92 116 92q29 29 220 44z" />
    <glyph glyph-name="currency" unicode="&#xa4;" horiz-adv-x="1359" 
d="M206 1274h14q34 0 139 -88q21 -8 30 -8h6q15 0 130 40q115 16 145 16h63q20 0 143 -40q55 -12 69 -12h24q39 4 126 84q5 4 13 4h16q63 0 110 -88l3 -24q0 -30 -76 -128q-17 -33 -17 -68q0 -46 37 -128q13 -63 13 -148h3q-25 -193 -49 -232q-7 0 -10 -48q0 -65 86 -124
q13 -21 13 -36v-20q0 -80 -103 -108h-13q-37 0 -126 80q-46 20 -73 20q-30 0 -162 -52q-42 -8 -66 -8q-87 12 -176 16q-83 40 -106 40q-71 0 -146 -84q-29 -20 -46 -20h-14q-78 0 -106 92l-3 24v4q0 51 89 148q10 37 10 44q0 30 -36 168q0 76 -7 112q22 192 37 192
q10 31 10 44v16q0 16 -47 104q-53 101 -53 116v8q0 56 106 92zM385 638q10 -79 80 -152q48 -21 93 -60q15 -20 132 -20q76 0 206 104q54 54 66 132q7 28 7 48v20q-35 156 -57 156q-76 96 -146 96q-37 24 -89 32q-60 0 -169 -60q-116 -112 -116 -200z" />
    <glyph glyph-name="yen" unicode="&#xa5;" horiz-adv-x="1262" 
d="M13628 1464q172 -6 172 -32q26 0 56 -136q11 -25 28 -112q28 -44 56 -44q59 0 84 120q15 25 36 132q31 60 88 60q13 11 76 12q180 0 180 -36q20 -25 20 -52v-16q0 -18 -48 -108q0 -68 -40 -132q-20 -88 -72 -216q-32 -115 -32 -132v-4q0 -49 84 -100q16 -31 16 -40v-12
q0 -49 -72 -72q-28 -20 -28 -40v-4q0 -18 52 -68q8 -35 8 -48q0 -40 -104 -76q-48 -56 -48 -124q4 -34 4 -56q0 -152 -96 -152l-116 16q-64 -8 -80 -8q-82 0 -92 108q0 114 -36 192q-13 21 -156 56q-24 26 -24 44q0 55 56 72q68 17 68 48v4q0 31 -72 44q-37 27 -40 52v20
q0 47 76 80q28 28 28 64q0 56 -64 184q0 44 -52 164q0 43 -64 168q-11 38 -16 120q0 60 96 60h68z" />
    <glyph glyph-name="brokenbar" unicode="&#xa6;" 
 />
    <glyph glyph-name="section" unicode="&#xa7;" horiz-adv-x="931" 
d="M184 984q-4 5 -8 11q-57 61 -57 135q-14 136 -14 148q14 190 47 201q32 68 80 81l115 40h6q32 0 68 -2q37 6 85 6h40q83 -2 175 -44q41 -22 77 -115q34 -66 34 -107q0 -155 -155 -155h-10q-105 15 -105 51q-15 100 -80 100q-59 0 -81 -77v-26q0 -103 228 -161
q39 -34 119 -62q62 -62 94 -141l3 -17q0 -21 -3 -56q3 -75 3 -131l3 -24q0 -87 -62 -218q35 -46 56 -98l3 -18q0 -21 -3 -56q3 -75 3 -131l3 -24q0 -88 -64 -222q-38 -51 -80 -51l-98 -36q-51 -14 -90 -14h-38q-136 0 -262 50q-105 85 -105 222q-2 56 -2 85q0 49 83 88
q30 2 38 2q137 -25 137 -56q5 0 28 -55q41 -56 83 -56q72 0 82 100v3q0 100 -108 135q-50 16 -84 35q-78 12 -152 41q-105 85 -105 223q-2 56 -2 85v8q-4 46 -4 53q14 189 47 201q14 30 32 49zM448 602q15 -7 30 -7q72 0 82 100l-1 10q-17 85 -77 85q-59 0 -81 -78v-26
q0 -46 47 -84z" />
    <glyph glyph-name="dieresis" unicode="&#xa8;" horiz-adv-x="1024" 
d="M290 1699q93 0 112 -40q36 -46 36 -68v-20q0 -116 -116 -116q-47 -16 -76 -16h-8q-77 0 -112 60q0 7 -8 32q17 132 44 132q52 36 128 36zM754 1695h16q120 0 120 -92q8 -40 8 -80v-4q0 -64 -80 -64l-108 -16q-82 0 -124 80q-4 27 -4 44q0 80 52 112q33 20 120 20z" />
    <glyph glyph-name="copyright" unicode="&#xa9;" horiz-adv-x="1666" 
d="M1031 -160q-14 -3 -29 -5q-32 0 -56 -4q-111 4 -204 4q-43 8 -56 8h-8q-70 -8 -72 -8q-26 0 -184 32q-102 0 -256 184q-36 136 -36 184q8 60 8 100v24q0 29 -32 180q0 11 24 128q0 10 -4 104q4 79 4 104q-8 30 -8 56v16q16 109 16 160q0 80 -8 80l40 156q24 66 120 136
q42 27 180 52q0 6 60 16q22 -4 36 -4t132 32q148 0 275 -9l8 9l49 -13q99 -9 184 -23q69 -14 119 -36q37 -12 56 -24q96 -70 120 -136l40 -156q-8 0 -8 -80q0 -51 16 -160v-16q0 -26 -8 -56q0 -25 4 -104q-4 -94 -4 -104q24 -117 24 -128q-32 -151 -32 -180v-24
q0 -40 8 -100q0 -48 -36 -184q-154 -184 -256 -184q-158 -32 -184 -32q-2 0 -42 5zM839 1387q-170 -4 -265 -40q-156 -42 -156 -136q0 -12 -12 -100v-40l4 -24q-7 -50 -16 -280v-24q0 -47 8 -128q0 -14 -4 -84q4 -48 4 -72q-12 -42 -12 -64q16 -58 20 -176q19 -60 56 -88
q97 -56 124 -56q55 4 68 4q76 -4 76 -8q27 4 44 4h20q48 -5 82 -7q0 3 1 7h20q17 0 44 -4q0 4 76 8q13 0 68 -4q27 0 124 56q37 28 56 88q4 118 20 176q0 22 -12 64q0 24 4 72q-4 70 -4 84q8 81 8 128v24q-9 230 -16 280l4 24v40q-12 88 -12 100q0 94 -156 136
q-59 23 -148 33q-14 -1 -27 -1q-19 0 -48 6zM760 1259q125 -4 148 -9l6 3q174 -18 174 -48q54 -49 54 -86q17 -29 35 -177q-10 -88 -83 -88q-76 2 -120 2q-54 22 -54 89q0 59 -80 86h-6q-58 0 -68 -92v-3q0 -12 5 -48l-11 -66h3q-3 -5 -3 -8q0 -15 3 -26q-6 -55 -6 -71
q3 -53 3 -78q-9 -39 -9 -51v-3q0 -84 49 -151q20 -14 37 -14h8q68 0 78 97q0 58 80 77q19 3 31 3h8q126 -11 126 -46q4 0 6 -20q-3 -48 -3 -74q0 -13 3 -37q-26 -140 -49 -140q-13 -42 -91 -80q-32 -26 -134 -26q0 -4 -43 -6q-193 0 -209 26q-92 49 -122 149
q-20 101 -20 131q-3 53 -3 103q3 175 3 205q-6 49 -6 77q0 37 6 60q-3 15 -3 29q0 215 137 285q38 12 120 26z" />
    <glyph glyph-name="ordfeminine" unicode="&#xaa;" horiz-adv-x="648" 
 />
    <glyph glyph-name="guillemotleft" unicode="&#xab;" horiz-adv-x="944" 
 />
    <glyph glyph-name="logicalnot" unicode="&#xac;" 
 />
    <glyph glyph-name="registered" unicode="&#xae;" horiz-adv-x="1674" 
d="M606 1270q47 -6 71 -6q57 6 77 6l62 -9q51 9 83 9q92 -15 146 -18q42 -12 95 -86q32 -45 32 -92q12 -12 18 -130v-6q0 -59 -30 -175q-56 -68 -56 -86v-15q0 -10 53 -151q21 -68 30 -214q9 -18 9 -53q0 -77 -80 -77q-60 0 -77 6q-20 -3 -33 -3h-21q-83 16 -83 95
q-12 110 -41 264q-17 32 -42 32h-6q-38 0 -38 -56q0 -23 3 -83l-9 -42q3 -20 3 -32q-9 -92 -9 -110v-18q0 -40 -54 -50q-10 0 -26 3q-48 -3 -86 -3h-12q-60 0 -80 56q-12 53 -12 59l3 21q0 8 -3 45l21 124q-15 74 -15 89v48q6 106 6 118v15q-12 126 -12 160l21 110
q-18 79 -18 107q0 101 41 127q26 21 69 21zM775 920v-18q0 -65 38 -86l15 -3h6q51 0 77 74q0 8 3 24q0 68 -35 92q-38 12 -42 12q-62 0 -62 -95zM1024 -148q-14 -3 -29 -5q-32 0 -56 -4q-111 4 -204 4q-43 8 -56 8h-8q-70 -8 -72 -8q-26 0 -184 32q-102 0 -256 184
q-36 136 -36 184q8 60 8 100v24q0 29 -32 180q0 11 24 128q0 10 -4 104q4 79 4 104q-8 30 -8 56v16q16 109 16 160q0 80 -8 80l40 156q24 66 120 136q42 27 180 52q0 6 60 16q22 -4 36 -4t132 32q148 0 275 -9l8 9l49 -13q99 -9 184 -23q69 -14 119 -36q37 -12 56 -24
q96 -70 120 -136l40 -156q-8 0 -8 -80q0 -51 16 -160v-16q0 -26 -8 -56q0 -25 4 -104q-4 -94 -4 -104q24 -117 24 -128q-32 -151 -32 -180v-24q0 -40 8 -100q0 -48 -36 -184q-154 -184 -256 -184q-158 -32 -184 -32q-2 0 -42 5zM832 1399q-170 -4 -265 -40
q-156 -42 -156 -136q0 -12 -12 -100v-40l4 -24q-7 -50 -16 -280v-24q0 -47 8 -128q0 -14 -4 -84q4 -48 4 -72q-12 -42 -12 -64q16 -58 20 -176q19 -60 56 -88q97 -56 124 -56q55 4 68 4q76 -4 76 -8q27 4 44 4h20q48 -5 82 -7q0 3 1 7h20q17 0 44 -4q0 4 76 8q13 0 68 -4
q27 0 124 56q37 28 56 88q4 118 20 176q0 22 -12 64q0 24 4 72q-4 70 -4 84q8 81 8 128v24q-9 230 -16 280l4 24v40q-12 88 -12 100q0 94 -156 136q-59 23 -148 33q-14 -1 -27 -1q-19 0 -48 6z" />
    <glyph glyph-name="macron" unicode="&#xaf;" horiz-adv-x="670" 
 />
    <glyph glyph-name="degree" unicode="&#xb0;" horiz-adv-x="674" 
 />
    <glyph glyph-name="plusminus" unicode="&#xb1;" 
 />
    <glyph glyph-name="uni00B2" unicode="&#xb2;" 
 />
    <glyph glyph-name="uni00B3" unicode="&#xb3;" 
 />
    <glyph glyph-name="acute" unicode="&#xb4;" horiz-adv-x="852" 
d="M691 1341q0 -24 -12 -60q-51 -56 -100 -120q-44 -67 -188 -104h-36q-108 0 -108 56q0 43 64 112q65 99 72 104q33 68 160 68h44l28 4q76 -21 76 -60z" />
    <glyph glyph-name="mu" unicode="&#xb5;" horiz-adv-x="656" 
d="M89 1428v-69q0 -32 -3 -45q3 -23 3 -51v-99q0 -48 -30 -48h-15v-30q1 -6 6 -6h30q45 0 45 102v246q0 5 -6 5h-24q-6 0 -6 -5zM158 1428v-12q0 -33 -3 -42q3 -29 3 -54v-84q0 -14 -3 -30q0 -117 30 -117q2 -9 24 -9h15q42 0 48 78v270q0 5 -6 5h-24q-4 0 -9 -8
q3 -53 3 -63l-3 -42l3 -27q-3 -28 -3 -54l3 -6l-3 -6l3 -36q0 -75 -21 -75q-21 4 -21 33v279q0 5 -6 5h-24q-6 0 -6 -5zM305 1431v-99q0 -31 -3 -48q3 -17 3 -48v-75q0 -19 -3 -45q3 -9 3 -36h27q9 0 9 63v57q0 7 -3 12q3 5 3 12v39l3 21h3q37 -204 48 -204h29v195
q0 14 3 30q-3 11 -3 27v93q0 6 -6 6h-23q-6 -1 -6 -6v-15q0 -32 3 -45q-3 -23 -3 -51v-51h-6q-30 154 -42 168h-36zM454 1425v-48q0 -3 3 -3l-3 -6v-105q0 -16 3 -27q-3 -16 -3 -30v-117q0 -4 9 -9h24q6 0 6 6v87q3 42 12 42h6q29 -135 39 -135h24q6 0 6 6q0 13 -45 207
q45 127 45 138h-33q-8 0 -45 -120h-9v66q0 3 -3 3l3 6v36q0 4 -9 9h-24q-6 -1 -6 -6zM35 961v-30q0 -3 3 -3l-3 -6v-141q0 -3 3 -3q-3 -6 -3 -9q9 -78 54 -78h15q40 0 54 75q-3 21 -3 33q0 17 3 21q-3 26 -3 42v42q0 14 3 30q0 113 -48 113h-27q-48 -14 -48 -86zM329 700
l6 -3h24q9 0 15 87q9 6 18 6h3q23 0 23 -60q0 -33 9 -33h24q6 0 6 6q-3 45 -42 344h-38q-12 0 -27 -170q-3 0 -21 -177zM191 1039v-87q0 -56 -3 -90q3 -25 3 -87v-12q0 -24 -3 -57q5 -12 9 -12l30 3v144q0 21 30 21q15 -4 15 -21v-141q1 -6 6 -6l30 3v342q0 5 -6 5h-24
q-6 0 -6 -5v-123q0 -18 -18 -18h-9q-18 0 -18 18v123q0 5 -6 5h-24q-6 0 -6 -5zM481 1044v-98q0 -31 -3 -48q3 -17 3 -48v-75q0 -19 -3 -45q3 -9 3 -36h27q9 0 9 63v57q0 7 -3 12q3 5 3 12v39l3 21h3q37 -204 48 -204h30v195q0 14 3 30q-3 11 -3 27v93q0 5 -6 5h-24
q-6 0 -6 -5v-6q0 -11 3 -27q-3 -6 -3 -9q0 -7 3 -12q-3 -33 -3 -57v-51h-6q-29 154 -42 167h-36zM95 1012q24 0 24 -63v-174q0 -39 -21 -51q-27 8 -27 51q3 35 3 51v150q0 28 21 36zM395 937l12 -99q-3 -12 -15 -12q-9 2 -12 12q6 99 15 99zM215 658v-155q0 -23 3 -42
q-3 -15 -3 -39v-51q0 -7 3 -12q-3 -5 -3 -12v-27q1 -6 6 -6h90q4 0 9 9v21q0 9 -63 12l-3 6v27q0 9 -3 9l3 15v48q0 18 18 18h42q6 0 6 6v30l-15 3h-3q-10 0 -15 -3q-36 0 -36 24q3 25 3 42v36q0 4 9 9h42l15 3v29q0 6 -6 6h-93q-6 0 -6 -6zM344 664q0 -17 -3 -47l3 -6
l-3 -15q3 -64 3 -75l-3 -21q3 -16 3 -36q0 -19 -3 -30q3 -20 3 -39v-75q1 -6 6 -6h24q6 0 6 6v123q1 18 9 18q11 0 35 -144l6 -3h27q6 0 6 6q0 9 -30 150q24 37 24 69v42q0 83 -59 83h-54zM484 578v-30q0 -3 3 -3l-3 -6v-141q0 -3 3 -3q-3 -6 -3 -9q9 -78 54 -78h15
q40 0 54 75q-3 21 -3 33q0 17 3 21q-3 25 -3 42v42q0 14 3 30q0 113 -48 113h-27q-48 -13 -48 -86zM65 655v-86q0 -56 -3 -90q3 -25 3 -87v-12q0 -24 -3 -57q5 -12 9 -12l30 3v144q0 21 30 21q15 -4 15 -21v-141q1 -6 6 -6l30 3v341q0 6 -6 6h-24q-6 0 -6 -6v-122
q0 -18 -18 -18h-9q-18 0 -18 18v122q0 6 -6 6h-24q-6 0 -6 -6zM395 629q26 -5 26 -54q-3 -6 -3 -12v-9q0 -3 3 -3q0 -51 -29 -51q-12 2 -12 24v84q0 16 15 21zM544 629q24 0 24 -63v-174q0 -39 -21 -51q-27 8 -27 51q3 35 3 51v150q0 28 21 36zM224 234v-33q16 -3 18 -3
q6 3 9 3v3q2 51 15 51q18 0 18 -27v-27q0 -30 -60 -162v-36l15 -3h18q12 0 33 3q5 -3 15 -3q6 3 9 3v24q0 6 -6 6h-45q0 20 45 132q6 13 6 39v33q0 41 -45 47q-38 0 -45 -50zM335 228v-177q7 -54 48 -54q47 0 47 78v30q0 16 -3 27q3 16 3 30v54q0 68 -47 68h-6
q-42 -11 -42 -56zM448 246v-18l21 -12l3 -12q0 -17 -3 -21q3 -39 3 -63v-117h27v278h-15zM529 278l-6 -155l6 -3h21q2 36 15 36h6q10 0 18 -39l-3 -6v-42q-4 -30 -12 -30h-9q-13 0 -15 36h-27v-6q0 -72 48 -72h3q42 8 42 63v66q0 45 -27 60h-30q-6 0 -6 6v33q0 27 27 27h24
q6 0 6 6v6l-3 14h-78zM380 252h6q12 0 15 -42v-138q0 -42 -18 -42t-21 51l3 18v9q0 7 -3 12q3 5 3 12q0 6 -3 6l3 15q0 28 -3 69q0 19 18 30z" />
    <glyph glyph-name="paragraph" unicode="&#xb6;" horiz-adv-x="648" 
d="M89 1428v-69q0 -32 -3 -45q3 -23 3 -51v-99q0 -48 -30 -48h-15v-30q1 -6 6 -6h30q45 0 45 102v246q0 5 -6 5h-24q-6 0 -6 -5zM158 1428v-12q0 -33 -3 -42q3 -29 3 -54v-84q0 -14 -3 -30q0 -117 30 -117q2 -9 24 -9h15q42 0 48 78v270q0 5 -6 5h-24q-4 0 -9 -8
q3 -53 3 -63l-3 -42l3 -27q-3 -28 -3 -54l3 -6l-3 -6l3 -36q0 -75 -21 -75q-21 4 -21 33v279q0 5 -6 5h-24q-6 0 -6 -5zM305 1431v-99q0 -31 -3 -48q3 -17 3 -48v-75q0 -19 -3 -45q3 -9 3 -36h27q9 0 9 63v57q0 7 -3 12q3 5 3 12v39l3 21h3q37 -204 48 -204h29v195
q0 14 3 30q-3 11 -3 27v93q0 6 -6 6h-23q-6 -1 -6 -6v-15q0 -32 3 -45q-3 -23 -3 -51v-51h-6q-30 154 -42 168h-36zM454 1425v-48q0 -3 3 -3l-3 -6v-105q0 -16 3 -27q-3 -16 -3 -30v-117q0 -4 9 -9h24q6 0 6 6v87q3 42 12 42h6q29 -135 39 -135h24q6 0 6 6q0 13 -45 207
q45 127 45 138h-33q-8 0 -45 -120h-9v66q0 3 -3 3l3 6v36q0 4 -9 9h-24q-6 -1 -6 -6zM35 961v-30q0 -3 3 -3l-3 -6v-141q0 -3 3 -3q-3 -6 -3 -9q9 -78 54 -78h15q40 0 54 75q-3 21 -3 33q0 17 3 21q-3 26 -3 42v42q0 14 3 30q0 113 -48 113h-27q-48 -14 -48 -86zM329 700
l6 -3h24q9 0 15 87q9 6 18 6h3q23 0 23 -60q0 -33 9 -33h24q6 0 6 6q-3 45 -42 344h-38q-12 0 -27 -170q-3 0 -21 -177zM191 1039v-87q0 -56 -3 -90q3 -25 3 -87v-12q0 -24 -3 -57q5 -12 9 -12l30 3v144q0 21 30 21q15 -4 15 -21v-141q1 -6 6 -6l30 3v342q0 5 -6 5h-24
q-6 0 -6 -5v-123q0 -18 -18 -18h-9q-18 0 -18 18v123q0 5 -6 5h-24q-6 0 -6 -5zM481 1044v-98q0 -31 -3 -48q3 -17 3 -48v-75q0 -19 -3 -45q3 -9 3 -36h27q9 0 9 63v57q0 7 -3 12q3 5 3 12v39l3 21h3q37 -204 48 -204h30v195q0 14 3 30q-3 11 -3 27v93q0 5 -6 5h-24
q-6 0 -6 -5v-6q0 -11 3 -27q-3 -6 -3 -9q0 -7 3 -12q-3 -33 -3 -57v-51h-6q-29 154 -42 167h-36zM95 1012q24 0 24 -63v-174q0 -39 -21 -51q-27 8 -27 51q3 35 3 51v150q0 28 21 36zM395 937l12 -99q-3 -12 -15 -12q-9 2 -12 12q6 99 15 99zM215 658v-155q0 -23 3 -42
q-3 -15 -3 -39v-51q0 -7 3 -12q-3 -5 -3 -12v-27q1 -6 6 -6h90q4 0 9 9v21q0 9 -63 12l-3 6v27q0 9 -3 9l3 15v48q0 18 18 18h42q6 0 6 6v30l-15 3h-3q-10 0 -15 -3q-36 0 -36 24q3 25 3 42v36q0 4 9 9h42l15 3v29q0 6 -6 6h-93q-6 0 -6 -6zM344 664q0 -17 -3 -47l3 -6
l-3 -15q3 -64 3 -75l-3 -21q3 -16 3 -36q0 -19 -3 -30q3 -20 3 -39v-75q1 -6 6 -6h24q6 0 6 6v123q1 18 9 18q11 0 35 -144l6 -3h27q6 0 6 6q0 9 -30 150q24 37 24 69v42q0 83 -59 83h-54zM484 578v-30q0 -3 3 -3l-3 -6v-141q0 -3 3 -3q-3 -6 -3 -9q9 -78 54 -78h15
q40 0 54 75q-3 21 -3 33q0 17 3 21q-3 25 -3 42v42q0 14 3 30q0 113 -48 113h-27q-48 -13 -48 -86zM65 655v-86q0 -56 -3 -90q3 -25 3 -87v-12q0 -24 -3 -57q5 -12 9 -12l30 3v144q0 21 30 21q15 -4 15 -21v-141q1 -6 6 -6l30 3v341q0 6 -6 6h-24q-6 0 -6 -6v-122
q0 -18 -18 -18h-9q-18 0 -18 18v122q0 6 -6 6h-24q-6 0 -6 -6zM395 629q26 -5 26 -54q-3 -6 -3 -12v-9q0 -3 3 -3q0 -51 -29 -51q-12 2 -12 24v84q0 16 15 21zM544 629q24 0 24 -63v-174q0 -39 -21 -51q-27 8 -27 51q3 35 3 51v150q0 28 21 36zM224 234v-33q16 -3 18 -3
q6 3 9 3v3q2 51 15 51q18 0 18 -27v-27q0 -30 -60 -162v-36l15 -3h18q12 0 33 3q5 -3 15 -3q6 3 9 3v24q0 6 -6 6h-45q0 20 45 132q6 13 6 39v33q0 41 -45 47q-38 0 -45 -50zM335 228v-177q7 -54 48 -54q47 0 47 78v30q0 16 -3 27q3 16 3 30v54q0 68 -47 68h-6
q-42 -11 -42 -56zM448 246v-18l21 -12l3 -12q0 -17 -3 -21q3 -39 3 -63v-117h27v278h-15zM529 278l-6 -155l6 -3h21q2 36 15 36h6q10 0 18 -39l-3 -6v-42q-4 -30 -12 -30h-9q-13 0 -15 36h-27v-6q0 -72 48 -72h3q42 8 42 63v66q0 45 -27 60h-30q-6 0 -6 6v33q0 27 27 27h24
q6 0 6 6v6l-3 14h-78zM380 252h6q12 0 15 -42v-138q0 -42 -18 -42t-21 51l3 18v9q0 7 -3 12q3 5 3 12q0 6 -3 6l3 15q0 28 -3 69q0 19 18 30z" />
    <glyph glyph-name="periodcentered" unicode="&#xb7;" horiz-adv-x="508" 
 />
    <glyph glyph-name="periodcentered" unicode="&#x2219;" horiz-adv-x="508" 
 />
    <glyph glyph-name="cedilla" unicode="&#xb8;" horiz-adv-x="1024" 
 />
    <glyph glyph-name="uni00B9" unicode="&#xb9;" 
 />
    <glyph glyph-name="ordmasculine" unicode="&#xba;" horiz-adv-x="718" 
 />
    <glyph glyph-name="guillemotright" unicode="&#xbb;" horiz-adv-x="944" 
 />
    <glyph glyph-name="onequarter" unicode="&#xbc;" horiz-adv-x="1708" 
 />
    <glyph glyph-name="onehalf" unicode="&#xbd;" horiz-adv-x="1544" 
d="M348 1463h32q59 0 68 -112v-16q0 -40 -8 -108q4 -50 4 -52l-4 -64q12 -74 12 -96l-4 -36q0 -74 80 -120q33 -23 68 -96q22 -16 44 -16q56 0 152 176l172 256q63 70 124 196q25 41 72 52q78 24 88 24h20q53 0 64 -72q-31 -100 -112 -184q-5 0 -100 -128q-23 -19 -76 -136
q-64 -83 -64 -104q6 -40 28 -40q21 0 72 8q58 -8 80 -8q7 0 48 4q30 -1 152 -44q76 -66 76 -128v-44q0 -33 8 -120q0 -68 -88 -184q-28 -55 -28 -76v-8q0 -14 84 -48q28 -37 28 -128q-28 -60 -112 -60q-63 4 -92 4q-47 0 -96 -4q-34 4 -116 4t-96 108q0 114 80 164
q176 136 176 208v4q-11 44 -40 44q-104 -24 -124 -24h-16q-70 0 -88 64q0 96 -48 96h-12q-40 0 -104 -112q-19 -13 -64 -112q-51 -53 -80 -108q-64 -47 -104 -116q-77 -184 -152 -184q-47 -20 -88 -20q-53 0 -60 76v4q13 70 104 168q20 0 56 80q20 34 64 84q75 163 120 192
q8 13 8 24q0 52 -208 52l-120 12q-21 -4 -40 -4h-16q-52 0 -92 72l-4 24v24q0 58 104 120q32 37 32 112q4 0 4 4q0 105 -52 132q-72 45 -72 116v4q0 51 36 68q42 0 136 108q38 24 84 24z" />
    <glyph glyph-name="threequarters" unicode="&#xbe;" horiz-adv-x="1708" 
 />
    <glyph glyph-name="questiondown" unicode="&#xbf;" horiz-adv-x="1048" 
d="M487 -194q-75 0 -208 40q-93 36 -152 140q-36 122 -36 148q12 94 12 120v28q0 9 4 16q-4 7 -4 16v24q0 19 -4 40q0 45 80 160q180 127 180 184q14 28 36 112q41 44 160 44q0 4 8 4q94 0 124 -76l4 -28q0 -190 -40 -228q0 -36 -184 -184q-36 -54 -36 -116v-4
q22 -104 104 -104q94 0 116 128q28 40 64 40q204 -12 204 -24q40 -25 40 -92v-8l-32 -204q0 -76 -176 -156q-25 -8 -52 -12q-41 4 -64 4h-44q-47 0 -104 -12zM455 1006q-104 30 -104 96v28q0 25 -4 60q19 120 60 120l40 4h20q40 0 88 -12q44 4 80 4q40 0 84 -68l4 -20
q0 -6 -4 -56q4 -42 4 -48q0 -75 -76 -100q-22 -4 -36 -4q-38 0 -156 -4z" />
    <glyph glyph-name="Agrave" unicode="&#xc0;" horiz-adv-x="1540" 
 />
    <glyph glyph-name="Aacute" unicode="&#xc1;" horiz-adv-x="1540" 
 />
    <glyph glyph-name="Acircumflex" unicode="&#xc2;" horiz-adv-x="1540" 
 />
    <glyph glyph-name="Atilde" unicode="&#xc3;" horiz-adv-x="1540" 
 />
    <glyph glyph-name="Adieresis" unicode="&#xc4;" horiz-adv-x="1145" 
d="M359 1708q128 -18 128 -112q4 0 4 -24v-20q0 -104 -124 -104q-24 0 -72 -8q-84 0 -112 84q-4 21 -4 24q0 110 40 140q26 12 140 20zM745 1714q191 0 224 -44q12 -22 12 -36q-12 -42 -16 -132q0 -26 -108 -44q-158 0 -188 60q-8 26 -8 52q11 144 80 144h4zM683 1442
q71 -20 156 -28q36 -18 52 -76q16 -72 24 -272q20 -44 20 -148q56 -249 56 -388q11 -24 20 -80l-8 -84q36 -178 36 -212q4 -45 4 -116q0 -100 -116 -100h-28q-125 24 -168 24q-40 0 -60 132q-14 156 -48 156q-24 20 -68 20h-28q-56 -13 -56 -96v-8q0 -17 4 -44
q-14 -156 -68 -156q-157 -28 -200 -28q-50 0 -104 96q0 13 -4 20q32 157 32 320q18 0 44 336q36 175 48 316v96q0 16 24 108q0 149 104 196h20q60 0 100 4q46 -4 120 -4h4q18 0 88 16zM515 690q17 -48 52 -48q43 0 52 40v24q-18 72 -40 72h-20q-22 0 -44 -88z" />
    <glyph glyph-name="Aring" unicode="&#xc5;" horiz-adv-x="1145" 
d="M631 1760q156 -47 156 -80q12 0 24 -134v-16q0 -10 -28 -96q0 -7 72 -40q60 -66 60 -264q20 -44 32 -244q0 -20 -4 -60q0 -11 44 -116q-4 -47 -4 -68v-44q0 -62 28 -204q0 -12 4 -28q-4 -21 -4 -40l24 -184q8 -40 8 -68q-8 -116 -36 -116q-23 -16 -72 -24q-85 16 -96 16
h-60q-4 0 -4 -4q-62 0 -92 68q-11 33 -32 212q0 30 -76 52h-20q-57 0 -80 -84q-28 -224 -76 -224q-108 -32 -200 -32q-41 0 -100 76v8q4 79 4 104l-4 36q52 231 52 312q0 27 32 176l-4 36q40 256 64 524q16 48 24 136q88 94 88 116v-12q-28 90 -28 120v6q0 126 96 160
q0 11 72 20q45 -4 80 -4q43 8 56 8zM531 1564v18q14 -24 48 -24q36 7 36 32q0 3 -40 10q-44 0 -44 -36zM511 690q0 -48 56 -52q41 0 60 72v32q-10 72 -48 72h-4q-44 0 -64 -112v-12z" />
    <glyph glyph-name="AE" unicode="&#xc6;" horiz-adv-x="2118" 
 />
    <glyph glyph-name="Ccedilla" unicode="&#xc7;" horiz-adv-x="1399" 
 />
    <glyph glyph-name="Egrave" unicode="&#xc8;" horiz-adv-x="1151" 
 />
    <glyph glyph-name="Eacute" unicode="&#xc9;" horiz-adv-x="1151" 
 />
    <glyph glyph-name="Ecircumflex" unicode="&#xca;" horiz-adv-x="1151" 
 />
    <glyph glyph-name="Edieresis" unicode="&#xcb;" horiz-adv-x="1151" 
 />
    <glyph glyph-name="Igrave" unicode="&#xcc;" horiz-adv-x="657" 
 />
    <glyph glyph-name="Iacute" unicode="&#xcd;" horiz-adv-x="657" 
 />
    <glyph glyph-name="Icircumflex" unicode="&#xce;" horiz-adv-x="657" 
 />
    <glyph glyph-name="Idieresis" unicode="&#xcf;" horiz-adv-x="657" 
 />
    <glyph glyph-name="Eth" unicode="&#xd0;" horiz-adv-x="1518" 
 />
    <glyph glyph-name="Ntilde" unicode="&#xd1;" horiz-adv-x="1554" 
 />
    <glyph glyph-name="Ograve" unicode="&#xd2;" horiz-adv-x="1614" 
 />
    <glyph glyph-name="Oacute" unicode="&#xd3;" horiz-adv-x="1614" 
 />
    <glyph glyph-name="Ocircumflex" unicode="&#xd4;" horiz-adv-x="1614" 
 />
    <glyph glyph-name="Otilde" unicode="&#xd5;" horiz-adv-x="1614" 
 />
    <glyph glyph-name="Odieresis" unicode="&#xd6;" horiz-adv-x="1207" 
d="M359 1704q134 -19 134 -101q0 -83 -34 -116q-30 -33 -59 -33h-4q-54 7 -60 7h-48q-66 0 -86 82l-4 45v19q0 84 153 97h8zM793 1700q186 0 186 -50q19 -29 19 -82q-12 -120 -85 -120l-39 -4q-61 16 -143 20q-39 20 -39 147q9 89 66 89h35zM426 1466q44 -9 44 -12l28 4h4
q60 0 96 -8v4q4 0 4 -4l88 16q67 -32 92 -32h20q9 0 16 4q21 0 108 -60q45 -14 80 -84q32 -80 56 -232v-56q0 -14 -4 -36q4 -4 12 -96q0 -67 -8 -152q12 -86 12 -116q-4 -35 -4 -44h4l-4 -8q0 -50 -4 -124q4 -60 4 -84q-24 -78 -24 -192q-28 -69 -136 -184q-36 -36 -164 -36
q-94 -16 -136 -16q-260 17 -260 48q-58 0 -124 76q-68 90 -68 160l-32 160q0 34 4 100q-4 56 -4 96q16 72 16 80q-13 65 -16 72l8 64h-4q0 4 4 4l-4 28v72q0 280 48 364q42 132 88 132q55 49 116 68q4 9 44 24zM482 1026v-12q0 -105 8 -132q-4 -26 -8 -128q8 -86 8 -112
l-12 -68q12 -260 36 -260q51 -44 84 -44q116 24 116 272v52q-4 60 -4 84l4 16q-4 21 -4 40q0 29 8 136q-44 182 -64 228q-36 28 -72 28q-100 -15 -100 -100z" />
    <glyph glyph-name="multiply" unicode="&#xd7;" 
 />
    <glyph glyph-name="Oslash" unicode="&#xd8;" horiz-adv-x="1614" 
 />
    <glyph glyph-name="Ugrave" unicode="&#xd9;" horiz-adv-x="1501" 
 />
    <glyph glyph-name="Uacute" unicode="&#xda;" horiz-adv-x="1501" 
 />
    <glyph glyph-name="Ucircumflex" unicode="&#xdb;" horiz-adv-x="1501" 
 />
    <glyph glyph-name="Udieresis" unicode="&#xdc;" horiz-adv-x="1501" 
 />
    <glyph glyph-name="Yacute" unicode="&#xdd;" horiz-adv-x="1233" 
 />
    <glyph glyph-name="Thorn" unicode="&#xde;" horiz-adv-x="1120" 
 />
    <glyph glyph-name="germandbls" unicode="&#xdf;" horiz-adv-x="1251" 
 />
    <glyph glyph-name="agrave" unicode="&#xe0;" horiz-adv-x="922" 
 />
    <glyph glyph-name="aacute" unicode="&#xe1;" horiz-adv-x="922" 
 />
    <glyph glyph-name="acircumflex" unicode="&#xe2;" horiz-adv-x="922" 
 />
    <glyph glyph-name="atilde" unicode="&#xe3;" horiz-adv-x="922" 
 />
    <glyph glyph-name="adieresis" unicode="&#xe4;" horiz-adv-x="1161" 
d="M251 1699q190 -19 206 -19q34 -13 34 -107q0 -73 -50 -114q-30 -8 -38 -8h-19q-82 0 -164 50q-30 42 -30 87v4q16 103 49 103q4 0 12 4zM771 1707q164 -11 164 -28q40 -51 40 -92q-15 -84 -44 -108q-54 -32 -184 -32q-54 0 -84 108q-8 53 -8 56q0 51 48 80q30 16 68 16z
M747 1443q156 0 156 -160q0 -15 24 -124q0 -23 16 -112q-4 -63 -4 -92q16 -152 28 -228q20 -39 20 -60v-56q28 -140 28 -268q16 -46 20 -156q20 -43 20 -88v-56q0 -4 4 -4q-9 -64 -48 -64q-48 8 -56 8q-126 -8 -164 -8q-112 16 -112 88q0 21 4 80q0 78 -84 144l-40 8
q-70 0 -96 -116v-8q0 -12 8 -80q0 -104 -164 -132q-77 24 -156 24q-52 24 -52 56v12q0 17 32 160q0 34 16 156q0 4 -4 4q32 141 32 172q0 27 8 72q-8 43 -8 68q0 61 40 192q-4 22 -4 36v20q0 26 36 244q13 142 24 200q43 60 156 60h216q38 0 104 8zM519 699q6 -56 48 -56
q56 16 56 92v4q-13 68 -52 68q-41 0 -52 -108z" />
    <glyph glyph-name="aring" unicode="&#xe5;" horiz-adv-x="1161" 
d="M551 1757q221 -25 236 -80q28 -44 28 -84v-4q0 -76 -40 -144v26q0 -19 88 -52q44 -30 44 -204q32 -69 32 -196q0 -25 -4 -60q36 -154 36 -168q-4 -62 -4 -108q0 -22 32 -140q0 -54 28 -228q0 -96 32 -252q0 -49 -56 -68q-63 -20 -192 -20q-128 0 -128 96q0 173 -76 216
l-28 4h-20q-61 0 -88 -128q4 -22 4 -36v-40q0 -106 -144 -128h-8q-5 0 -72 20h-24q-124 0 -124 52q0 4 -4 12q8 36 20 140l-4 24v8q0 29 32 128q0 86 24 216q0 34 -8 64q48 257 48 292l36 300q0 124 44 196q72 30 72 76q-32 73 -32 86q0 111 36 140q38 16 184 44zM533 1575
q0 -22 32 -28q44 12 44 24v16q-4 13 -40 28q-36 -12 -36 -40zM511 711q9 -56 48 -56h20q23 0 40 72v4q0 73 -52 84q-35 0 -56 -104z" />
    <glyph glyph-name="ae" unicode="&#xe6;" horiz-adv-x="1454" 
 />
    <glyph glyph-name="ccedilla" unicode="&#xe7;" horiz-adv-x="905" 
 />
    <glyph glyph-name="egrave" unicode="&#xe8;" horiz-adv-x="909" 
 />
    <glyph glyph-name="eacute" unicode="&#xe9;" horiz-adv-x="909" 
 />
    <glyph glyph-name="ecircumflex" unicode="&#xea;" horiz-adv-x="909" 
 />
    <glyph glyph-name="edieresis" unicode="&#xeb;" horiz-adv-x="909" 
 />
    <glyph glyph-name="igrave" unicode="&#xec;" horiz-adv-x="514" 
 />
    <glyph glyph-name="iacute" unicode="&#xed;" horiz-adv-x="514" 
 />
    <glyph glyph-name="icircumflex" unicode="&#xee;" horiz-adv-x="514" 
 />
    <glyph glyph-name="idieresis" unicode="&#xef;" horiz-adv-x="514" 
 />
    <glyph glyph-name="eth" unicode="&#xf0;" horiz-adv-x="1139" 
 />
    <glyph glyph-name="ntilde" unicode="&#xf1;" horiz-adv-x="1108" 
 />
    <glyph glyph-name="ograve" unicode="&#xf2;" horiz-adv-x="1010" 
 />
    <glyph glyph-name="oacute" unicode="&#xf3;" horiz-adv-x="1010" 
 />
    <glyph glyph-name="ocircumflex" unicode="&#xf4;" horiz-adv-x="1010" 
 />
    <glyph glyph-name="otilde" unicode="&#xf5;" horiz-adv-x="1010" 
 />
    <glyph glyph-name="odieresis" unicode="&#xf6;" horiz-adv-x="1196" 
d="M774 1708q49 -4 85 -4h39q78 -15 78 -74v-71q0 -60 -160 -78q-1 -10 -63 -14q-50 42 -50 82q0 112 39 145q29 14 32 14zM286 1692q43 -4 49 -7l22 4h46q61 0 71 -103v-21q0 -84 -103 -99h-32q-156 16 -156 127q0 88 103 99zM739 1479q34 -35 172 -68q80 -53 80 -100
q40 -55 40 -136q0 -37 24 -156v-44q0 -138 -8 -268q16 -71 16 -80l-16 -232q0 -33 8 -92q-32 -161 -44 -200q-86 -103 -156 -128l-124 -36q-51 -8 -96 -8h-24q-48 0 -152 24q-77 0 -204 44q-33 33 -120 228q-12 58 -12 176v8q0 30 8 112q0 15 -24 104q4 130 12 228v84
q0 211 40 312q21 82 96 144q96 56 144 56q62 16 184 24q13 0 64 -8q71 12 92 12zM471 859q0 -19 12 -84q-4 -121 -16 -188l28 -112q-4 -74 -4 -92q0 -63 84 -92h32q65 0 88 144q8 47 12 140q0 35 -4 88q4 83 4 156q-10 284 -44 284q-19 28 -84 28q-81 0 -92 -116
q-4 -108 -16 -156z" />
    <glyph glyph-name="divide" unicode="&#xf7;" 
 />
    <glyph glyph-name="oslash" unicode="&#xf8;" horiz-adv-x="1010" 
 />
    <glyph glyph-name="ugrave" unicode="&#xf9;" horiz-adv-x="1059" 
 />
    <glyph glyph-name="uacute" unicode="&#xfa;" horiz-adv-x="1059" 
 />
    <glyph glyph-name="ucircumflex" unicode="&#xfb;" horiz-adv-x="1059" 
 />
    <glyph glyph-name="udieresis" unicode="&#xfc;" horiz-adv-x="1059" 
 />
    <glyph glyph-name="yacute" unicode="&#xfd;" horiz-adv-x="868" 
 />
    <glyph glyph-name="thorn" unicode="&#xfe;" horiz-adv-x="1010" 
 />
    <glyph glyph-name="ydieresis" unicode="&#xff;" horiz-adv-x="868" 
 />
    <glyph glyph-name="dagger" unicode="&#x2020;" 
 />
    <glyph glyph-name="franc" unicode="&#x20a3;" 
 />
    <glyph glyph-name="lira" unicode="&#x20a4;" 
 />
    <glyph glyph-name="peseta" unicode="&#x20a7;" horiz-adv-x="2028" 
 />
    <glyph glyph-name="Euro" unicode="&#x20ac;" horiz-adv-x="1100" 
d="M633 1496q166 0 272 -60q28 -27 28 -124q-21 -156 -100 -156q-115 28 -188 28h-12q-71 -9 -132 -60q-40 -39 -40 -60v-24q0 -92 156 -92q0 -7 104 -12q72 -22 72 -56v-12q0 -60 -140 -60q-128 0 -128 -32q-12 0 -24 -44v-8q0 -55 188 -72q32 -19 32 -44v-4q0 -61 -92 -68
q-124 -12 -124 -48q-20 -36 -20 -88q50 -100 128 -100q48 10 132 76q41 24 108 24l24 -4v4l8 -4h28q79 0 104 -88l4 -40v-28q0 -192 -136 -228q-149 -48 -164 -48l-160 -8q-70 8 -88 8q-40 -4 -60 -4q-30 0 -152 56q-64 49 -80 96q-40 106 -40 144q8 109 8 148
q-5 50 -84 148l-12 40q5 47 48 104q8 26 8 36v4q0 31 -56 96v32q0 49 64 120q20 33 44 152l-8 88q0 8 44 108q9 53 56 92q79 36 224 68l64 -4q30 0 92 8z" />
    <glyph glyph-name="uni2116" unicode="&#x2116;" horiz-adv-x="2271" 
 />
    <glyph glyph-name="trademark" unicode="&#x2122;" horiz-adv-x="1497" 
 />
    <glyph glyph-name="partialdiff" unicode="&#x2202;" 
 />
    <glyph glyph-name="Delta" unicode="&#x2206;" horiz-adv-x="1081" 
 />
    <glyph glyph-name="product" unicode="&#x220f;" horiz-adv-x="1515" 
 />
    <glyph glyph-name="summation" unicode="&#x2211;" horiz-adv-x="1206" 
 />
    <glyph glyph-name="minus" unicode="&#x2212;" horiz-adv-x="877" 
d="M613 827q152 -29 152 -56q12 0 16 -56q0 -132 -48 -132q-21 -20 -80 -20q-57 8 -228 12l-76 -8q-22 4 -36 4q-77 -8 -108 -8q-144 0 -164 72v72q0 67 40 96q21 12 156 20q170 -16 192 -16h16q28 0 168 20z" />
    <glyph glyph-name="radical" unicode="&#x221a;" 
 />
    <glyph glyph-name="infinity" unicode="&#x221e;" 
 />
    <glyph glyph-name="integral" unicode="&#x222b;" horiz-adv-x="665" 
 />
    <glyph glyph-name="approxequal" unicode="&#x2248;" 
 />
  </font>
</defs>
</svg>
